<svg width="16" height="17" viewBox="0 0 16 17" fill="none" xmlns="http://www.w3.org/2000/svg">
<path d="M14.6706 6.66781L3.47123 1.06811C3.02925 0.848132 2.53017 0.769818 2.04205 0.843846C1.55393 0.917875 1.10052 1.14065 0.743641 1.48178C0.386758 1.82292 0.143771 2.26583 0.0478083 2.75011C-0.0481545 3.23439 0.00757734 3.73649 0.207405 4.18794L2.1273 8.48371C2.17086 8.58757 2.1933 8.69907 2.1933 8.81169C2.1933 8.92432 2.17086 9.03581 2.1273 9.13967L0.207405 13.4354C0.0447743 13.8008 -0.0239775 14.201 0.00739795 14.5997C0.0387734 14.9984 0.169281 15.3829 0.387061 15.7183C0.604841 16.0537 0.902988 16.3294 1.25441 16.5202C1.60583 16.7111 1.99937 16.8112 2.39929 16.8113C2.77385 16.8075 3.14284 16.7201 3.47923 16.5553L14.6786 10.9556C15.0759 10.7557 15.4098 10.4494 15.6431 10.0709C15.8764 9.69233 16 9.25638 16 8.81169C16 8.367 15.8764 7.93106 15.6431 7.5525C15.4098 7.17394 15.0759 6.86765 14.6786 6.66781H14.6706ZM13.9587 9.52365L2.75927 15.1233C2.6122 15.194 2.44707 15.2179 2.286 15.192C2.12493 15.1661 1.97564 15.0916 1.85813 14.9784C1.74062 14.8653 1.66051 14.7189 1.62855 14.5589C1.59659 14.3989 1.61431 14.233 1.67933 14.0834L3.59122 9.78764C3.61597 9.73028 3.63734 9.67151 3.65522 9.61165H9.16692C9.37908 9.61165 9.58255 9.52737 9.73257 9.37735C9.88259 9.22733 9.96687 9.02385 9.96687 8.81169C9.96687 8.59953 9.88259 8.39606 9.73257 8.24604C9.58255 8.09602 9.37908 8.01174 9.16692 8.01174H3.65522C3.63734 7.95187 3.61597 7.89311 3.59122 7.83574L1.67933 3.53998C1.61431 3.39036 1.59659 3.22443 1.62855 3.06446C1.66051 2.90448 1.74062 2.7581 1.85813 2.64495C1.97564 2.53179 2.12493 2.45726 2.286 2.43136C2.44707 2.40546 2.6122 2.42942 2.75927 2.50004L13.9587 8.09973C14.0897 8.16686 14.1997 8.26885 14.2764 8.39447C14.3532 8.52009 14.3939 8.66446 14.3939 8.81169C14.3939 8.95892 14.3532 9.10329 14.2764 9.22891C14.1997 9.35453 14.0897 9.45652 13.9587 9.52365Z" fill="#00171F"/>
</svg>
