<svg width="16" height="21" viewBox="0 0 16 21" fill="none" xmlns="http://www.w3.org/2000/svg">
<path d="M14 11.4967V8.31665C13.9986 6.89977 13.4958 5.52912 12.5806 4.44742C11.6655 3.36573 10.3971 2.6428 9 2.40665V1.31665C9 1.05143 8.89464 0.79708 8.70711 0.609544C8.51957 0.422007 8.26522 0.31665 8 0.31665C7.73478 0.31665 7.48043 0.422007 7.29289 0.609544C7.10536 0.79708 7 1.05143 7 1.31665V2.40665C5.60294 2.6428 4.33452 3.36573 3.41939 4.44742C2.50425 5.52912 2.00144 6.89977 2 8.31665V11.4967C1.41645 11.703 0.910998 12.0847 0.552938 12.5896C0.194879 13.0944 0.00173951 13.6977 0 14.3167V16.3167C0 16.5819 0.105357 16.8362 0.292893 17.0238C0.48043 17.2113 0.734784 17.3167 1 17.3167H4.14C4.37028 18.164 4.873 18.9121 5.5706 19.4454C6.26819 19.9787 7.1219 20.2677 8 20.2677C8.8781 20.2677 9.73181 19.9787 10.4294 19.4454C11.127 18.9121 11.6297 18.164 11.86 17.3167H15C15.2652 17.3167 15.5196 17.2113 15.7071 17.0238C15.8946 16.8362 16 16.5819 16 16.3167V14.3167C15.9983 13.6977 15.8051 13.0944 15.4471 12.5896C15.089 12.0847 14.5835 11.703 14 11.4967ZM4 8.31665C4 7.25578 4.42143 6.23837 5.17157 5.48822C5.92172 4.73808 6.93913 4.31665 8 4.31665C9.06087 4.31665 10.0783 4.73808 10.8284 5.48822C11.5786 6.23837 12 7.25578 12 8.31665V11.3167H4V8.31665ZM8 18.3167C7.65097 18.3145 7.30857 18.2211 7.00683 18.0457C6.70509 17.8703 6.45451 17.6189 6.28 17.3167H9.72C9.54549 17.6189 9.29491 17.8703 8.99317 18.0457C8.69143 18.2211 8.34903 18.3145 8 18.3167ZM14 15.3167H2V14.3167C2 14.0514 2.10536 13.7971 2.29289 13.6095C2.48043 13.422 2.73478 13.3167 3 13.3167H13C13.2652 13.3167 13.5196 13.422 13.7071 13.6095C13.8946 13.7971 14 14.0514 14 14.3167V15.3167Z" fill="white"/>
</svg>
