<svg width="16" height="16" viewBox="0 0 16 16" fill="none" xmlns="http://www.w3.org/2000/svg">
    <path d="M9.40898 7.99829L15.7044 1.71285C15.8926 1.52468 15.9983 1.26947 15.9983 1.00336C15.9983 0.737256 15.8926 0.482046 15.7044 0.293879C15.5162 0.105711 15.261 0 14.9949 0C14.7288 0 14.4736 0.105711 14.2854 0.293879L8 6.58932L1.71456 0.293879C1.52639 0.105711 1.27118 2.36263e-07 1.00507 2.38246e-07C0.738961 2.40229e-07 0.483751 0.105711 0.295584 0.293879C0.107417 0.482046 0.0017056 0.737256 0.0017056 1.00336C0.0017056 1.26947 0.107417 1.52468 0.295584 1.71285L6.59102 7.99829L0.295584 14.2837C0.201924 14.3766 0.127583 14.4872 0.0768515 14.6089C0.0261195 14.7307 0 14.8613 0 14.9932C0 15.1251 0.0261195 15.2558 0.0768515 15.3775C0.127583 15.4993 0.201924 15.6098 0.295584 15.7027C0.38848 15.7964 0.499001 15.8707 0.620772 15.9214C0.742543 15.9722 0.873154 15.9983 1.00507 15.9983C1.13699 15.9983 1.2676 15.9722 1.38937 15.9214C1.51114 15.8707 1.62166 15.7964 1.71456 15.7027L8 9.40727L14.2854 15.7027C14.3783 15.7964 14.4889 15.8707 14.6106 15.9214C14.7324 15.9722 14.863 15.9983 14.9949 15.9983C15.1268 15.9983 15.2575 15.9722 15.3792 15.9214C15.501 15.8707 15.6115 15.7964 15.7044 15.7027C15.7981 15.6098 15.8724 15.4993 15.9232 15.3775C15.9739 15.2558 16 15.1251 16 14.9932C16 14.8613 15.9739 14.7307 15.9232 14.6089C15.8724 14.4872 15.7981 14.3766 15.7044 14.2837L9.40898 7.99829Z" fill="#747474"/>
</svg>