<svg width="16" height="16" viewBox="0 0 16 16" fill="none" xmlns="http://www.w3.org/2000/svg">
    <path d="M9.87818 7.99773L15.606 2.28325C15.8568 2.03242 15.9977 1.69222 15.9977 1.3375C15.9977 0.98277 15.8568 0.642573 15.606 0.391744C15.3552 0.140914 15.015 0 14.6602 0C14.3055 0 13.9653 0.140914 13.7145 0.391744L8 6.11954L2.28552 0.391744C2.03469 0.140914 1.6945 -2.64291e-09 1.33977 0C0.985044 2.64292e-09 0.644846 0.140914 0.394017 0.391744C0.143188 0.642573 0.00227327 0.98277 0.00227327 1.3375C0.00227327 1.69222 0.143188 2.03242 0.394017 2.28325L6.12182 7.99773L0.394017 13.7122C0.269166 13.836 0.17007 13.9834 0.102444 14.1457C0.0348177 14.308 0 14.4821 0 14.658C0 14.8338 0.0348177 15.0079 0.102444 15.1702C0.17007 15.3326 0.269166 15.4799 0.394017 15.6037C0.517848 15.7286 0.665174 15.8277 0.827496 15.8953C0.989818 15.9629 1.16392 15.9977 1.33977 15.9977C1.51562 15.9977 1.68972 15.9629 1.85204 15.8953C2.01437 15.8277 2.16169 15.7286 2.28552 15.6037L8 9.87591L13.7145 15.6037C13.8383 15.7286 13.9856 15.8277 14.148 15.8953C14.3103 15.9629 14.4844 15.9977 14.6602 15.9977C14.8361 15.9977 15.0102 15.9629 15.1725 15.8953C15.3348 15.8277 15.4822 15.7286 15.606 15.6037C15.7308 15.4799 15.8299 15.3326 15.8976 15.1702C15.9652 15.0079 16 14.8338 16 14.658C16 14.4821 15.9652 14.308 15.8976 14.1457C15.8299 13.9834 15.7308 13.836 15.606 13.7122L9.87818 7.99773Z" fill="white"/>
</svg>