<svg width="16" height="18" viewBox="0 0 16 18" fill="none" xmlns="http://www.w3.org/2000/svg">
<path d="M15.1111 3.55556H11.5556V2.66667C11.5556 1.95942 11.2746 1.28115 10.7745 0.781049C10.2744 0.280952 9.59613 0 8.88889 0H7.11111C6.40387 0 5.72559 0.280952 5.22549 0.781049C4.7254 1.28115 4.44444 1.95942 4.44444 2.66667V3.55556H0.888889C0.653141 3.55556 0.427048 3.64921 0.260349 3.81591C0.0936505 3.9826 0 4.2087 0 4.44444C0 4.68019 0.0936505 4.90629 0.260349 5.07298C0.427048 5.23968 0.653141 5.33333 0.888889 5.33333H1.77778V15.1111C1.77778 15.8184 2.05873 16.4966 2.55883 16.9967C3.05892 17.4968 3.7372 17.7778 4.44444 17.7778H11.5556C12.2628 17.7778 12.9411 17.4968 13.4412 16.9967C13.9413 16.4966 14.2222 15.8184 14.2222 15.1111V5.33333H15.1111C15.3469 5.33333 15.573 5.23968 15.7397 5.07298C15.9064 4.90629 16 4.68019 16 4.44444C16 4.2087 15.9064 3.9826 15.7397 3.81591C15.573 3.64921 15.3469 3.55556 15.1111 3.55556ZM6.22222 2.66667C6.22222 2.43092 6.31587 2.20483 6.48257 2.03813C6.64927 1.87143 6.87536 1.77778 7.11111 1.77778H8.88889C9.12464 1.77778 9.35073 1.87143 9.51743 2.03813C9.68413 2.20483 9.77778 2.43092 9.77778 2.66667V3.55556H6.22222V2.66667ZM12.4444 15.1111C12.4444 15.3469 12.3508 15.573 12.1841 15.7397C12.0174 15.9064 11.7913 16 11.5556 16H4.44444C4.2087 16 3.9826 15.9064 3.81591 15.7397C3.64921 15.573 3.55556 15.3469 3.55556 15.1111V5.33333H12.4444V15.1111Z" fill="white"/>
</svg>
