<svg width="17" height="16" viewBox="0 0 17 16" fill="none" xmlns="http://www.w3.org/2000/svg">
    <path d="M15.7475 9.6C15.5353 9.6 15.3318 9.68429 15.1818 9.83432C15.0318 9.98434 14.9475 10.1878 14.9475 10.4V13.6C14.9475 13.8122 14.8632 14.0157 14.7132 14.1657C14.5631 14.3157 14.3597 14.4 14.1475 14.4H2.94749C2.73531 14.4 2.53183 14.3157 2.3818 14.1657C2.23177 14.0157 2.14749 13.8122 2.14749 13.6V10.4C2.14749 10.1878 2.0632 9.98434 1.91317 9.83432C1.76314 9.68429 1.55966 9.6 1.34749 9.6C1.13531 9.6 0.931829 9.68429 0.7818 9.83432C0.631771 9.98434 0.547485 10.1878 0.547485 10.4V13.6C0.547485 14.2365 0.800342 14.847 1.25043 15.2971C1.70052 15.7471 2.31097 16 2.94749 16H14.1475C14.784 16 15.3945 15.7471 15.8445 15.2971C16.2946 14.847 16.5475 14.2365 16.5475 13.6V10.4C16.5475 10.1878 16.4632 9.98434 16.3132 9.83432C16.1631 9.68429 15.9597 9.6 15.7475 9.6ZM7.97949 10.968C8.05557 11.0408 8.14528 11.0979 8.24349 11.136C8.33925 11.1783 8.44279 11.2002 8.54749 11.2002C8.65218 11.2002 8.75572 11.1783 8.85149 11.136C8.94969 11.0979 9.0394 11.0408 9.11549 10.968L12.3155 7.768C12.4661 7.61736 12.5508 7.41304 12.5508 7.2C12.5508 6.98696 12.4661 6.78264 12.3155 6.632C12.1648 6.48136 11.9605 6.39673 11.7475 6.39673C11.5344 6.39673 11.3301 6.48136 11.1795 6.632L9.34749 8.472V0.8C9.34749 0.587827 9.2632 0.384344 9.11317 0.234315C8.96314 0.0842854 8.75966 0 8.54749 0C8.33531 0 8.13183 0.0842854 7.9818 0.234315C7.83177 0.384344 7.74749 0.587827 7.74749 0.8V8.472L5.91549 6.632C5.84089 6.55741 5.75234 6.49824 5.65489 6.45787C5.55743 6.4175 5.45297 6.39673 5.34749 6.39673C5.242 6.39673 5.13754 6.4175 5.04009 6.45787C4.94263 6.49824 4.85408 6.55741 4.77949 6.632C4.70489 6.70659 4.64573 6.79514 4.60536 6.8926C4.56499 6.99006 4.54421 7.09451 4.54421 7.2C4.54421 7.30549 4.56499 7.40994 4.60536 7.5074C4.64573 7.60486 4.70489 7.69341 4.77949 7.768L7.97949 10.968Z" fill="white"/>
</svg>