<svg width="16" height="17" viewBox="0 0 16 17" fill="none" xmlns="http://www.w3.org/2000/svg">
<path d="M15.2 10.4167C14.9878 10.4167 14.7843 10.501 14.6343 10.651C14.4843 10.8011 14.4 11.0045 14.4 11.2167V14.4167C14.4 14.6289 14.3157 14.8324 14.1657 14.9824C14.0157 15.1324 13.8122 15.2167 13.6 15.2167H2.4C2.18783 15.2167 1.98434 15.1324 1.83431 14.9824C1.68429 14.8324 1.6 14.6289 1.6 14.4167V11.2167C1.6 11.0045 1.51571 10.8011 1.36569 10.651C1.21566 10.501 1.01217 10.4167 0.8 10.4167C0.587827 10.4167 0.384344 10.501 0.234315 10.651C0.0842854 10.8011 0 11.0045 0 11.2167V14.4167C0 15.0532 0.252856 15.6637 0.702944 16.1138C1.15303 16.5639 1.76348 16.8167 2.4 16.8167H13.6C14.2365 16.8167 14.847 16.5639 15.2971 16.1138C15.7471 15.6637 16 15.0532 16 14.4167V11.2167C16 11.0045 15.9157 10.8011 15.7657 10.651C15.6157 10.501 15.4122 10.4167 15.2 10.4167ZM7.432 11.7847C7.50808 11.8575 7.5978 11.9146 7.696 11.9527C7.79176 11.995 7.8953 12.0169 8 12.0169C8.1047 12.0169 8.20824 11.995 8.304 11.9527C8.4022 11.9146 8.49192 11.8575 8.568 11.7847L11.768 8.58471C11.9186 8.43407 12.0033 8.22975 12.0033 8.01671C12.0033 7.80367 11.9186 7.59935 11.768 7.44871C11.6174 7.29807 11.413 7.21344 11.2 7.21344C10.987 7.21344 10.7826 7.29807 10.632 7.44871L8.8 9.28871V1.61671C8.8 1.40454 8.71571 1.20106 8.56569 1.05103C8.41566 0.900997 8.21217 0.816711 8 0.816711C7.78783 0.816711 7.58434 0.900997 7.43431 1.05103C7.28429 1.20106 7.2 1.40454 7.2 1.61671V9.28871L5.368 7.44871C5.29341 7.37412 5.20486 7.31495 5.1074 7.27458C5.00994 7.23422 4.90549 7.21344 4.8 7.21344C4.69451 7.21344 4.59006 7.23422 4.4926 7.27458C4.39514 7.31495 4.30659 7.37412 4.232 7.44871C4.15741 7.5233 4.09824 7.61185 4.05787 7.70931C4.0175 7.80677 3.99673 7.91122 3.99673 8.01671C3.99673 8.1222 4.0175 8.22665 4.05787 8.32411C4.09824 8.42157 4.15741 8.51012 4.232 8.58471L7.432 11.7847Z" fill="#00171F"/>
</svg>
