<svg width="17" height="17" viewBox="0 0 17 17" fill="none" xmlns="http://www.w3.org/2000/svg">
    <path d="M2.94813 12.8046H6.43127C6.53938 12.8052 6.64655 12.7851 6.74664 12.7453C6.84673 12.7054 6.93777 12.6468 7.01453 12.5726L12.6993 7.02864L15.0323 4.80464C15.1093 4.73027 15.1704 4.64179 15.2121 4.5443C15.2538 4.44681 15.2753 4.34225 15.2753 4.23664C15.2753 4.13103 15.2538 4.02646 15.2121 3.92898C15.1704 3.83149 15.1093 3.74301 15.0323 3.66864L11.5492 0.236639C11.4728 0.161656 11.382 0.10214 11.2818 0.0615255C11.1817 0.0209106 11.0744 0 10.9659 0C10.8575 0 10.7501 0.0209106 10.65 0.0615255C10.5499 0.10214 10.459 0.161656 10.3827 0.236639L8.06604 2.50064L2.36487 8.04464C2.28873 8.11939 2.22849 8.20804 2.18761 8.30551C2.14673 8.40298 2.12601 8.50735 2.12663 8.61264V12.0046C2.12663 12.2168 2.21318 12.4203 2.36724 12.5703C2.5213 12.7204 2.73025 12.8046 2.94813 12.8046ZM10.9659 1.93264L13.2907 4.19664L12.1242 5.33264L9.79939 3.06864L10.9659 1.93264ZM3.76962 8.94064L8.64109 4.19664L10.9659 6.46064L6.09445 11.2046H3.76962V8.94064ZM16.092 14.4046H1.30514C1.08726 14.4046 0.878313 14.4889 0.724253 14.639C0.570193 14.789 0.483643 14.9925 0.483643 15.2046C0.483643 15.4168 0.570193 15.6203 0.724253 15.7703C0.878313 15.9204 1.08726 16.0046 1.30514 16.0046H16.092C16.3099 16.0046 16.5189 15.9204 16.6729 15.7703C16.827 15.6203 16.9135 15.4168 16.9135 15.2046C16.9135 14.9925 16.827 14.789 16.6729 14.639C16.5189 14.4889 16.3099 14.4046 16.092 14.4046Z" fill="white"/>
</svg>