<svg width="21" height="16" viewBox="0 0 21 16" fill="none" xmlns="http://www.w3.org/2000/svg">
<path d="M19.9235 7.6C19.1179 5.72954 18.0291 4.1422 16.7512 2.90966C16.4203 2.59052 16.0767 2.29518 15.722 2.02486C14.012 0.72145 12.0449 0 10.0035 0C5.90348 0 2.10348 2.91 0.0834848 7.6C0.0284215 7.72617 0 7.86234 0 8C0 8.13766 0.0284215 8.27383 0.0834848 8.4C0.890869 10.2746 1.98262 11.8648 3.26423 13.0985C3.60671 13.4281 3.96275 13.7323 4.33054 14.0097C6.02988 15.2913 7.98015 16 10.0035 16C14.1035 16 17.9035 13.09 19.9235 8.4C19.9785 8.27383 20.007 8.13766 20.007 8C20.007 7.86234 19.9785 7.72617 19.9235 7.6ZM10.0035 14C8.54788 14 7.13209 13.5202 5.85872 12.644C5.48137 12.3844 5.11652 12.0899 4.76685 11.7628C3.71869 10.7823 2.80693 9.50854 2.10348 8C3.83348 4.29 6.82348 2 10.0035 2C11.4754 2 12.9067 2.49065 14.1911 3.38567C14.5577 3.64114 14.9124 3.92954 15.2526 4.24889C16.2955 5.22781 17.2028 6.49745 17.9035 8C16.1735 11.71 13.1835 14 10.0035 14ZM10.0035 4C9.21236 4 8.439 4.2346 7.7812 4.67412C7.12341 5.11365 6.61072 5.73836 6.30797 6.46927C6.00522 7.20017 5.926 8.00444 6.08034 8.78036C6.17547 9.25862 6.3567 9.71287 6.61275 10.122C6.77211 10.3766 6.96045 10.6138 7.17506 10.8284C7.28866 10.942 7.4086 11.0483 7.5341 11.1468C8.02656 11.5332 8.60478 11.8001 9.22312 11.9231C9.99905 12.0775 10.8033 11.9983 11.5342 11.6955C12.2651 11.3928 12.8898 10.8801 13.3294 10.2223C13.7689 9.56448 14.0035 8.79113 14.0035 8C14.0035 7.25164 13.7938 6.52491 13.4069 5.89836C13.2453 5.63672 13.0529 5.39255 12.8319 5.17157C12.7289 5.06858 12.6209 4.97178 12.5084 4.88142C11.8016 4.31365 10.9187 4 10.0035 4ZM10.0035 10C9.67856 10 9.35962 9.92085 9.07378 9.77078C9.01165 9.73816 8.95107 9.70218 8.89234 9.66294C8.56345 9.44318 8.3071 9.13082 8.15573 8.76537C8.15422 8.76173 8.15273 8.75809 8.15124 8.75445C8.00357 8.39192 7.96551 7.99392 8.04191 7.60982C8.11908 7.22186 8.30957 6.86549 8.58927 6.58579C8.86898 6.30608 9.22534 6.1156 9.6133 6.03843C10.0013 5.96126 10.4034 6.00087 10.7689 6.15224C10.8378 6.18082 10.9049 6.21314 10.9699 6.24898C11.2489 6.403 11.4882 6.62206 11.6664 6.88886C11.7476 7.0103 11.8147 7.13962 11.8672 7.27435C11.9568 7.50452 12.0035 7.75049 12.0035 8C12.0035 8.53043 11.7928 9.03914 11.4177 9.41421C11.0426 9.78929 10.5339 10 10.0035 10Z" fill="black"/>
<path d="M4.33054 14.0097C3.96275 13.7323 3.60671 13.4281 3.26423 13.0985L0 16H2.10348L4.33054 14.0097Z" fill="black"/>
<path d="M4.76685 11.7628C5.11652 12.0899 5.48137 12.3844 5.85872 12.644L7.5341 11.1468C7.4086 11.0483 7.28866 10.942 7.17506 10.8284C6.96045 10.6138 6.77211 10.3766 6.61275 10.122L4.76685 11.7628Z" fill="black"/>
<path d="M8.89234 9.66294C8.95107 9.70218 9.01165 9.73816 9.07378 9.77078L11.8672 7.27435C11.8147 7.13962 11.7476 7.0103 11.6664 6.88886C11.4882 6.62206 11.2489 6.403 10.9699 6.24898L8.15124 8.75445C8.15273 8.75809 8.15422 8.76173 8.15573 8.76537C8.3071 9.13082 8.56345 9.44318 8.89234 9.66294Z" fill="black"/>
<path d="M15.2526 4.24889C14.9124 3.92954 14.5577 3.64114 14.1911 3.38567L12.5084 4.88142C12.6209 4.97178 12.7289 5.06858 12.8319 5.17157C13.0529 5.39255 13.2453 5.63672 13.4069 5.89836L15.2526 4.24889Z" fill="black"/>
<path d="M15.722 2.02486C16.0767 2.29518 16.4203 2.59052 16.7512 2.90966L20.007 0H18L15.722 2.02486Z" fill="black"/>
</svg>
