<svg width="16" height="19" viewBox="0 0 16 19" fill="none" xmlns="http://www.w3.org/2000/svg">
<path d="M15.1111 5.67122L9.77779 0.995696C9.28889 0.558406 8.65596 0.31665 8.00003 0.31665C7.34409 0.31665 6.71117 0.558406 6.22226 0.995696L0.888967 5.67122C0.60663 5.92373 0.381326 6.23349 0.228058 6.57987C0.0747893 6.92626 -0.0029267 7.30132 8.42608e-05 7.68009V15.4489C8.42608e-05 16.1562 0.281034 16.8344 0.781127 17.3345C1.28122 17.8346 1.95949 18.1156 2.66673 18.1156H13.3333C14.0406 18.1156 14.7188 17.8346 15.2189 17.3345C15.719 16.8344 16 16.1562 16 15.4489V7.6712C16.0017 7.29393 15.9234 6.92058 15.7702 6.57582C15.6169 6.23106 15.3923 5.92273 15.1111 5.67122ZM9.77779 16.3378H6.22226V11.8934C6.22226 11.6576 6.31591 11.4316 6.48261 11.2649C6.64931 11.0982 6.8754 11.0045 7.11114 11.0045H8.88891C9.12466 11.0045 9.35075 11.0982 9.51744 11.2649C9.68414 11.4316 9.77779 11.6576 9.77779 11.8934V16.3378ZM14.2222 15.4489C14.2222 15.6847 14.1286 15.9108 13.9619 16.0775C13.7952 16.2442 13.5691 16.3378 13.3333 16.3378H11.5556V11.8934C11.5556 11.1862 11.2746 10.5079 10.7745 10.0078C10.2744 9.5077 9.59615 9.22675 8.88891 9.22675H7.11114C6.40391 9.22675 5.72563 9.5077 5.22554 10.0078C4.72545 10.5079 4.4445 11.1862 4.4445 11.8934V16.3378H2.66673C2.43099 16.3378 2.2049 16.2442 2.0382 16.0775C1.8715 15.9108 1.77785 15.6847 1.77785 15.4489V7.6712C1.77801 7.545 1.80504 7.42027 1.85715 7.30532C1.90926 7.19037 1.98525 7.08784 2.08007 7.00454L7.41336 2.33791C7.57558 2.1954 7.78411 2.11681 8.00003 2.11681C8.21594 2.11681 8.42448 2.1954 8.58669 2.33791L13.92 7.00454C14.0148 7.08784 14.0908 7.19037 14.1429 7.30532C14.195 7.42027 14.222 7.545 14.2222 7.6712V15.4489Z" fill="white"/>
</svg>
