<svg width="16" height="18" viewBox="0 0 16 18" fill="none" xmlns="http://www.w3.org/2000/svg">
    <path d="M15.1111 5.35457L9.77779 0.679046C9.28889 0.241756 8.65596 0 8.00003 0C7.34409 0 6.71117 0.241756 6.22226 0.679046L0.888967 5.35457C0.60663 5.60708 0.381326 5.91684 0.228058 6.26322C0.0747893 6.60961 -0.0029267 6.98467 8.42608e-05 7.36344V15.1323C8.42608e-05 15.8395 0.281034 16.5178 0.781127 17.0179C1.28122 17.518 1.95949 17.7989 2.66673 17.7989H13.3333C14.0406 17.7989 14.7188 17.518 15.2189 17.0179C15.719 16.5178 16 15.8395 16 15.1323V7.35455C16.0017 6.97728 15.9234 6.60393 15.7702 6.25917C15.6169 5.91441 15.3923 5.60608 15.1111 5.35457ZM9.77779 16.0212H6.22226V11.5767C6.22226 11.341 6.31591 11.1149 6.48261 10.9482C6.64931 10.7815 6.8754 10.6879 7.11114 10.6879H8.88891C9.12466 10.6879 9.35075 10.7815 9.51744 10.9482C9.68414 11.1149 9.77779 11.341 9.77779 11.5767V16.0212ZM14.2222 15.1323C14.2222 15.368 14.1286 15.5941 13.9619 15.7608C13.7952 15.9275 13.5691 16.0212 13.3333 16.0212H11.5556V11.5767C11.5556 10.8695 11.2746 10.1912 10.7745 9.69114C10.2744 9.19105 9.59615 8.9101 8.88891 8.9101H7.11114C6.40391 8.9101 5.72563 9.19105 5.22554 9.69114C4.72545 10.1912 4.4445 10.8695 4.4445 11.5767V16.0212H2.66673C2.43099 16.0212 2.2049 15.9275 2.0382 15.7608C1.8715 15.5941 1.77785 15.368 1.77785 15.1323V7.35455C1.77801 7.22835 1.80504 7.10362 1.85715 6.98867C1.90926 6.87372 1.98525 6.77119 2.08007 6.68789L7.41336 2.02126C7.57558 1.87875 7.78411 1.80016 8.00003 1.80016C8.21594 1.80016 8.42448 1.87875 8.58669 2.02126L13.92 6.68789C14.0148 6.77119 14.0908 6.87372 14.1429 6.98867C14.195 7.10362 14.222 7.22835 14.2222 7.35455V15.1323Z" fill="#007EA7"/>
</svg>
