<svg width="150" height="170" viewBox="0 0 150 170" fill="none" xmlns="http://www.w3.org/2000/svg">
<path d="M69.6512 1.11127C67.2249 1.55766 65.426 4.02059 66.4423 6.26851V6.26851C67.2254 8.00082 69.1922 8.62879 71.0685 8.32288C73.8794 7.86461 76.2468 7.58084 79.2211 7.35747C81.1516 7.21249 82.6992 6.57055 82.7241 4.63476V4.63476C82.7514 2.51104 80.893 0.0163158 78.7711 0.107899C75.6162 0.244065 72.9048 0.512673 69.6512 1.11127Z" fill="white"/>
<path d="M70.0941 19.1147C69.5924 17.0246 71.0693 14.9782 73.2111 14.796L78.8058 14.3198C80.8303 14.1475 82.5689 15.7444 82.5689 17.7762V17.7762C82.5689 19.6514 81.0778 21.1738 79.2062 21.2881C77.4788 21.3936 75.9088 21.5486 74.0786 21.7977C72.257 22.0457 70.5231 20.9024 70.0941 19.1147V19.1147Z" fill="white"/>
<path d="M76.789 46.5328C76.4026 44.9939 77.3641 43.3621 78.9131 43.0186C79.3232 42.9276 79.7421 42.878 80.1896 42.8649C81.9461 42.8133 83.3814 44.3493 83.2671 46.1028C83.2544 46.2975 83.2363 46.4862 83.2126 46.6715C83.0229 48.1574 81.5381 48.9572 80.0405 48.9875V48.9875C78.802 49.0125 77.5099 48.5025 77.0535 47.3509C76.9461 47.0798 76.8586 46.8103 76.789 46.5328Z" fill="white"/>
<path d="M60.9228 53.4633C59.9661 52.1637 60.3059 50.3424 61.5227 49.2825V49.2825C62.9942 48.0008 65.3023 48.3431 66.4325 49.9338C66.5845 50.1478 66.7252 50.3594 66.8575 50.5726C67.6584 51.863 67.2223 53.4959 66.063 54.477V54.477C64.9951 55.3807 63.4197 55.6583 62.2949 54.8267C61.7625 54.4331 61.3179 53.9999 60.9228 53.4633Z" fill="white"/>
<path d="M51.322 64.235C49.9858 63.2696 48.1062 63.7825 47.3303 65.237C47.2996 65.2945 47.2691 65.3525 47.2387 65.4111C46.4334 66.9654 47.2669 68.8272 48.8759 69.5168L49.6004 69.8273C50.9097 70.3884 52.3871 69.7071 53.0479 68.4451V68.4451C53.5637 67.4602 53.5259 66.2528 52.743 65.4634C52.273 64.9895 51.8168 64.5925 51.322 64.235Z" fill="white"/>
<path d="M29.3947 71.8832C29.7664 69.9066 31.9075 68.8678 33.7999 69.549V69.549C35.7244 70.2419 36.559 72.3717 36.1898 74.3835V74.3835C35.8392 76.294 34.3742 77.9976 32.4317 77.9976V77.9976C30.4802 77.9976 28.8582 76.3883 29.039 74.4452C29.1218 73.5552 29.2361 72.7267 29.3947 71.8832Z" fill="white"/>
<path d="M20.8514 64.4678C22.4977 65.1836 23.3607 66.9914 22.9436 68.7374C22.5726 70.2907 22.296 71.6724 22.0773 73.2245C21.8121 75.1072 20.2506 76.569 18.3494 76.569V76.569C16.0792 76.569 14.3465 74.5177 14.7732 72.288C15.1446 70.3474 15.5196 68.6205 16.0154 66.7395C16.566 64.6504 18.8701 63.6064 20.8514 64.4678V64.4678Z" fill="white"/>
<path d="M7.29424 59.8302C9.13613 60.567 10.0718 62.6054 9.52808 64.5132C8.82716 66.9727 8.36406 69.1365 7.94819 71.7633C7.62744 73.7893 5.79171 75.2374 3.754 75.0023V75.0023C1.6851 74.7635 0.194385 72.8831 0.515606 70.8254C0.970834 67.9092 1.51266 65.3867 2.32283 62.2984C2.88791 60.1443 5.22654 59.0031 7.29424 59.8302V59.8302Z" fill="white"/>
<path d="M32.0967 91.8498C33.8178 91.7716 35.2751 93.0344 35.6502 94.7159C35.7682 95.2447 35.9011 95.7577 36.0555 96.2836C36.5764 98.0577 35.7756 99.9843 34.0642 100.684V100.684C32.3018 101.405 30.248 100.552 29.7333 98.7186C29.4079 97.5593 29.1936 96.4594 29.056 95.2343C28.8549 93.4433 30.2962 91.9317 32.0967 91.8498V91.8498Z" fill="white"/>
<path d="M32.0967 91.8498C33.8178 91.7716 35.2751 93.0344 35.6502 94.7159C35.7682 95.2447 35.9011 95.7577 36.0555 96.2836C36.5764 98.0577 35.7756 99.9843 34.0642 100.684V100.684C32.3018 101.405 30.248 100.552 29.7333 98.7186C29.4079 97.5593 29.1936 96.4594 29.056 95.2343C28.8549 93.4433 30.2962 91.9317 32.0967 91.8498V91.8498Z" fill="white"/>
<path d="M21.8441 95.8774C21.4392 94.2981 19.9511 93.2435 18.3268 93.3848V93.3848C16.3315 93.5583 14.9387 95.4398 15.3555 97.3988L15.9995 100.425L16.5491 103.008C17.0033 105.143 19.2999 106.326 21.3014 105.455V105.455C22.8559 104.78 23.6896 103.075 23.2686 101.433L21.8441 95.8774Z" fill="white"/>
<path d="M21.8441 95.8774C21.4392 94.2981 19.9511 93.2435 18.3268 93.3848V93.3848C16.3315 93.5583 14.9387 95.4398 15.3555 97.3988L15.9995 100.425L16.5491 103.008C17.0033 105.143 19.2999 106.326 21.3014 105.455V105.455C22.8559 104.78 23.6896 103.075 23.2686 101.433L21.8441 95.8774Z" fill="white"/>
<path d="M65.713 115.538C64.4412 114.657 62.6105 114.68 61.6138 115.863C61.4473 116.061 61.2833 116.256 61.1192 116.451C59.8674 117.937 60.0185 120.205 61.6067 121.325C61.6492 121.355 61.6915 121.384 61.7335 121.414C63.1444 122.392 65.0529 121.907 65.996 120.472C66.2535 120.081 66.4925 119.695 66.7249 119.294C67.49 117.977 66.9654 116.406 65.713 115.538V115.538Z" fill="white"/>
<path d="M65.713 115.538C64.4412 114.657 62.6105 114.68 61.6138 115.863C61.4473 116.061 61.2833 116.256 61.1192 116.451C59.8674 117.937 60.0185 120.205 61.6067 121.325C61.6492 121.355 61.6915 121.384 61.7335 121.414C63.1444 122.392 65.0529 121.907 65.996 120.472C66.2535 120.081 66.4925 119.695 66.7249 119.294C67.49 117.977 66.9654 116.406 65.713 115.538V115.538Z" fill="white"/>
<path d="M39.3407 135.252C38.0954 136.644 35.9802 136.873 34.5343 135.691C32.589 134.1 31.1654 132.681 29.8012 130.894C28.6979 129.449 29.036 127.409 30.4267 126.237V126.237C32.0458 124.874 34.4519 125.204 35.8335 126.808C36.7603 127.884 37.7124 128.836 38.861 129.823C40.4796 131.215 40.7641 133.661 39.3407 135.252V135.252Z" fill="white"/>
<path d="M39.3407 135.252C38.0954 136.644 35.9802 136.873 34.5343 135.691C32.589 134.1 31.1654 132.681 29.8012 130.894C28.6979 129.449 29.036 127.409 30.4267 126.237V126.237C32.0458 124.874 34.4519 125.204 35.8335 126.808C36.7603 127.884 37.7124 128.836 38.861 129.823C40.4796 131.215 40.7641 133.661 39.3407 135.252V135.252Z" fill="white"/>
<path d="M33.8852 149.721C35.0512 148.139 37.2759 147.816 38.8901 148.937C41.5544 150.789 43.801 152.125 46.6187 153.587C48.3285 154.474 49.078 156.534 48.281 158.288V158.288C47.4865 160.036 45.4412 160.85 43.6924 160.057C40.0599 158.411 37.4056 156.861 34.3917 154.376C32.9953 153.225 32.8116 151.178 33.8852 149.721V149.721Z" fill="white"/>
<path d="M82.8546 152.76C82.8546 150.542 80.8955 148.908 78.6777 148.896C77.4096 148.889 76.2727 148.751 75.1307 148.453C72.9778 147.893 70.579 148.858 69.9792 151.001V151.001C69.5004 152.71 70.3639 154.538 72.051 155.091C74.5294 155.904 76.6781 156.251 79.3333 156.32C81.2989 156.371 82.8546 154.726 82.8546 152.76V152.76Z" fill="white"/>
<path d="M82.8546 152.76C82.8546 150.542 80.8955 148.908 78.6777 148.896C77.4096 148.889 76.2727 148.751 75.1307 148.453C72.9778 147.893 70.579 148.858 69.9792 151.001V151.001C69.5004 152.71 70.3639 154.538 72.051 155.091C74.5294 155.904 76.6781 156.251 79.3333 156.32C81.2989 156.371 82.8546 154.726 82.8546 152.76V152.76Z" fill="white"/>
<path d="M90.5402 134.392C88.7509 134.657 87.4258 136.192 87.4258 138.001V138.001C87.4258 140.04 89.0989 141.716 91.1309 141.553C91.8694 141.494 92.5764 141.416 93.2968 141.312C95.401 141.008 96.6388 138.849 96.0435 136.808V136.808C95.5257 135.033 93.777 133.912 91.9476 134.183L90.5402 134.392Z" fill="white"/>
<path d="M90.5402 134.392C88.7509 134.657 87.4258 136.192 87.4258 138.001V138.001C87.4258 140.04 89.0989 141.716 91.1309 141.553C91.8694 141.494 92.5764 141.416 93.2968 141.312C95.401 141.008 96.6388 138.849 96.0435 136.808V136.808C95.5257 135.033 93.777 133.912 91.9476 134.183L90.5402 134.392Z" fill="white"/>
<path d="M106.871 145.856C105.228 146.464 104.2 148.125 104.477 149.856V149.856C104.824 152.026 107.043 153.39 109.091 152.593C111.854 151.517 114.002 150.407 116.319 148.779C117.78 147.752 118.035 145.72 116.99 144.272V144.272C115.95 142.832 113.98 142.469 112.428 143.334C110.731 144.279 109.078 145.04 106.871 145.856Z" fill="white"/>
<path d="M106.871 145.856C105.228 146.464 104.2 148.125 104.477 149.856V149.856C104.824 152.026 107.043 153.39 109.091 152.593C111.854 151.517 114.002 150.407 116.319 148.779C117.78 147.752 118.035 145.72 116.99 144.272V144.272C115.95 142.832 113.98 142.469 112.428 143.334C110.731 144.279 109.078 145.04 106.871 145.856Z" fill="white"/>
<path d="M120.203 128.665C121.773 127.543 122.029 125.309 120.752 123.862V123.862C119.667 122.632 117.837 122.402 116.481 123.324L114.278 124.822C112.837 125.802 112.412 127.736 113.308 129.23V129.23C114.295 130.874 116.475 131.328 118.036 130.213L120.203 128.665Z" fill="white"/>
<path d="M120.203 128.665C121.773 127.543 122.029 125.309 120.752 123.862V123.862C119.667 122.632 117.837 122.402 116.481 123.324L114.278 124.822C112.837 125.802 112.412 127.736 113.308 129.23V129.23C114.295 130.874 116.475 131.328 118.036 130.213L120.203 128.665Z" fill="white"/>
<path d="M110.185 113.804C109.253 112.927 107.823 112.856 106.808 113.636V113.636C105.712 114.479 105.465 116.033 106.246 117.174L106.937 118.184C107.824 119.48 109.615 119.767 110.862 118.813V118.813C112.205 117.787 112.307 115.801 111.076 114.642L110.185 113.804Z" fill="white"/>
<path d="M110.185 113.804C109.253 112.927 107.823 112.856 106.808 113.636V113.636C105.712 114.479 105.465 116.033 106.246 117.174L106.937 118.184C107.824 119.48 109.615 119.767 110.862 118.813V118.813C112.205 117.787 112.307 115.801 111.076 114.642L110.185 113.804Z" fill="white"/>
<path d="M73.7042 33.1569C73.1038 31.1845 74.3803 29.1145 76.4285 28.8783C77.3576 28.7712 78.2147 28.6968 79.0815 28.6479C80.9815 28.5408 82.4969 30.1546 82.4104 32.0556V32.0556C82.3368 33.676 81.1112 35.0061 79.5055 35.2359C78.8275 35.3329 78.1799 35.4293 77.5033 35.5334C75.8214 35.792 74.1996 34.7849 73.7042 33.1569V33.1569Z" fill="white"/>
<path d="M52.833 29.9065C54.3334 28.9497 54.9948 27.0846 54.392 25.4103V25.4103C53.5943 23.1943 50.9689 22.2498 48.9719 23.4984C34.8897 32.3035 27.8076 39.943 20.6529 54.4932C19.6696 56.4929 20.7248 58.8817 22.8471 59.5609V59.5609C24.6439 60.1359 26.5801 59.2676 27.404 57.5705C33.563 44.8839 39.8363 38.1947 52.833 29.9065Z" fill="white"/>
<path d="M47.9375 12.1381C48.9302 13.8181 48.4153 15.9835 46.7931 17.0682C29.7717 28.4492 21.5812 36.8721 14.2597 52.8261C13.4359 54.6213 11.428 55.5749 9.53421 55.0138V55.0138C7.23322 54.332 6.0883 51.7465 7.18908 49.6139C16.6294 31.3255 25.7474 22.4008 42.8138 10.962C44.5391 9.80563 46.8809 10.3501 47.9375 12.1381V12.1381Z" fill="white"/>
<path d="M55.1111 36.7161C56.8011 35.5396 59.1296 36.1208 60.1156 37.9285V37.9285C61.0111 39.5702 60.4581 41.6216 58.8928 42.6447C49.6091 48.7127 44.9882 53.742 40.7677 62.707C39.9742 64.3926 38.0695 65.2777 36.295 64.7099V64.7099C34.188 64.0356 33.1737 61.6344 34.2283 59.6896C39.6322 49.7249 44.8651 43.8493 55.1111 36.7161Z" fill="white"/>
<path d="M50.3494 93.2457C49.9507 91.6894 48.5695 90.5686 46.9629 90.5686V90.5686C44.8245 90.5686 43.197 92.5086 43.6789 94.5921C45.4505 102.25 47.9554 107.15 52.9461 113.144C54.2487 114.709 56.623 114.73 58.0209 113.25V113.25C59.2909 111.905 59.2774 109.813 58.0733 108.409C53.9921 103.65 51.9905 99.6509 50.3494 93.2457Z" fill="white"/>
<path d="M58.6709 128.434C60.0496 129.34 60.5736 131.131 59.8356 132.607V132.607C59.0018 134.274 56.9101 134.87 55.3481 133.852C44.8785 127.031 39.4952 121.135 34.2411 109.711C33.4582 108.009 34.3104 106.014 36.0613 105.347V105.347C37.648 104.743 39.4324 105.444 40.213 106.952C45.2186 116.621 49.3094 122.277 58.6709 128.434Z" fill="white"/>
<path d="M8.0294 97.5036C7.67228 95.6836 6.01737 94.3956 4.16856 94.5436V94.5436C2.07529 94.711 0.565036 96.6335 0.942299 98.6993C4.624 118.859 10.7259 130.081 25.3026 145.722C26.7427 147.267 29.1998 147.225 30.6082 145.651V145.651C31.8758 144.234 31.8275 142.077 30.5309 140.686C16.8409 126.01 11.6107 115.756 8.0294 97.5036Z" fill="white"/>
<path d="M98.5065 118.993C99.8722 118.475 101.445 118.91 102.239 120.136V120.136C103.179 121.59 102.659 123.55 101.075 124.249C94.0464 127.35 88.5487 127.776 80.1999 126.944C78.3877 126.764 77.1434 125.052 77.4842 123.263V123.263C77.7785 121.718 79.168 120.629 80.7389 120.707C87.9031 121.066 92.7728 121.168 98.5065 118.993Z" fill="white"/>
<path d="M70.5134 160.809C68.3522 160.532 66.3707 162.068 66.1301 164.234V164.234C65.8978 166.324 67.386 168.222 69.4738 168.478C91.5845 171.182 104.408 170.18 121.949 161.849C123.723 161.007 124.43 158.863 123.552 157.107V157.107C122.686 155.375 120.595 154.658 118.82 155.43C101.416 162.998 89.3516 163.226 70.5134 160.809Z" fill="white"/>
<path d="M84.5688 64.5694C99.1398 64.5694 105.711 71.7121 105.711 85.4259C105.14 97.1398 100.283 105.14 86.5687 105.14C73.4263 105.14 64.2837 100.568 64.2837 85.4259C64.2837 71.1406 69.7121 64.5694 84.5688 64.5694Z" fill="white"/>
<path d="M91.2149 0.260164C89.1641 0.0971105 87.4258 1.73451 87.4258 3.79179V3.79179C87.4258 5.67662 88.8962 7.23293 90.7741 7.39396C109.745 9.02068 120.423 13.6294 135.316 25.8093C136.981 27.1703 139.428 27.0176 140.87 25.4234V25.4234C142.409 23.7224 142.194 21.0689 140.375 19.6718C123.429 6.65804 111.597 1.88068 91.2149 0.260164Z" fill="white"/>
<path d="M87.4258 17.8C87.4258 15.7321 89.16 14.0777 91.2213 14.2429C107.095 15.5145 116.594 19.7335 130.219 30.0843C131.937 31.3898 132.084 33.911 130.558 35.4371V35.4371C129.261 36.7337 127.2 36.8454 125.744 35.731C113.819 26.6054 105.326 22.9695 90.7554 21.4463C88.8786 21.2501 87.4258 19.6871 87.4258 17.8V17.8Z" fill="white"/>
<path d="M90.8067 28.5186C88.9735 28.3563 87.4258 29.8289 87.4258 31.6692V31.6692C87.4258 33.3174 88.6771 34.692 90.3117 34.9028C101.062 36.2895 107.396 38.9447 115.881 45.6977C117.117 46.6816 118.879 46.6914 120.093 45.6799V45.6799C121.672 44.3644 121.658 41.9286 120.034 40.6691C110.128 32.9837 102.913 29.5903 90.8067 28.5186Z" fill="white"/>
<path d="M90.7151 43.3271C88.9208 43.178 87.4258 44.6331 87.4258 46.4335V46.4335C87.4258 47.9948 88.5595 49.3182 90.0927 49.613C97.0499 50.9503 101.185 52.6909 106.161 56.0276C107.556 56.9631 109.43 56.7964 110.581 55.5732V55.5732C111.946 54.1237 111.75 51.7998 110.119 50.6588C103.612 46.1069 98.6153 43.9838 90.7151 43.3271Z" fill="white"/>
<path d="M67.886 1.45733C66.4767 1.74954 65.4866 3.08658 65.8308 4.48406C66.0943 5.5541 66.4639 6.42515 66.9996 7.33798C67.561 8.29453 68.6957 8.72694 69.7887 8.53807C73.4963 7.89736 76.2675 7.55588 80.1561 7.29055C81.5476 7.19561 82.7002 6.12793 82.7227 4.73341C82.7319 4.16124 82.726 3.5107 82.7013 2.73436C82.6527 1.20503 81.3614 0.016195 79.8322 0.067422C75.6356 0.207999 72.3515 0.531429 67.886 1.45733Z" fill="white"/>
<path d="M69.9163 18.3741C69.5082 16.6736 70.7098 15.0088 72.4522 14.8606L79.4695 14.2633C81.137 14.1214 82.5689 15.4366 82.5689 17.1101V18.3699C82.5689 19.9143 81.3406 21.1714 79.7984 21.2542C77.6397 21.37 75.7861 21.5521 73.4775 21.8816C71.9968 22.0929 70.585 21.1602 70.2359 19.7058L69.9163 18.3741Z" fill="white"/>
<path d="M76.6219 45.5855C76.5145 44.6036 77.0699 43.6497 77.9925 43.2968C78.9464 42.9318 79.8659 42.8136 81.005 42.878C82.2771 42.9498 83.2785 44.0139 83.2889 45.288C83.2939 45.8997 83.2551 46.4375 83.1713 46.9574C82.96 48.2691 81.6354 48.983 80.3067 48.9846C80.135 48.9848 79.9634 48.9882 79.789 48.9947C78.691 49.0357 77.5776 48.5708 77.1412 47.5624C76.8643 46.9224 76.7005 46.3048 76.6219 45.5855Z" fill="white"/>
<path d="M60.4396 52.7121C59.9162 51.7851 60.1345 50.6213 60.8904 49.8718C61.3805 49.3859 61.864 48.9711 62.428 48.5684C63.4756 47.8204 64.9252 48.0518 65.7461 49.0434C66.3014 49.7142 66.7213 50.3172 67.0855 50.9556C67.7067 52.0445 67.339 53.401 66.3804 54.209C66.1645 54.3909 65.9515 54.5712 65.7324 54.7573C64.8525 55.5052 63.5847 55.7001 62.6247 55.0583C61.6984 54.4391 61.0252 53.749 60.4396 52.7121Z" fill="white"/>
<path d="M50.9067 63.95C49.7714 63.2102 48.2496 63.6216 47.5743 64.7964C47.396 65.1067 47.2272 65.4244 47.061 65.7642C46.3888 67.138 47.1067 68.7585 48.5125 69.361L49.6004 69.8272C50.9097 70.3884 52.3871 69.7071 53.0479 68.4451C53.5637 67.4602 53.5258 66.2528 52.743 65.4634C52.1446 64.86 51.5687 64.3813 50.9067 63.95Z" fill="white"/>
<path d="M29.5272 71.2231C29.87 69.6131 31.5925 68.7544 33.1412 69.3119L34.4383 69.7789C36.0354 70.3538 36.7052 72.1712 36.3087 73.8217C36.2116 74.2258 36.1392 74.632 36.0877 75.0561C35.8931 76.6563 34.6655 77.9976 33.0535 77.9976H31.7789C30.1756 77.9976 28.8669 76.6764 28.9862 75.0776C29.0888 73.7008 29.2551 72.5007 29.5272 71.2231Z" fill="white"/>
<path d="M21.4637 64.7341C22.7578 65.2967 23.4405 66.719 23.1015 68.0888C22.5884 70.1619 22.241 71.8714 21.9806 73.952C21.796 75.4271 20.5697 76.569 19.0831 76.569H17.4008C15.6257 76.569 14.275 74.9661 14.5979 73.2206C15.0842 70.592 15.5454 68.4246 16.2407 65.9042C16.6924 64.2671 18.5004 63.4457 20.0578 64.1228L21.4637 64.7341Z" fill="white"/>
<path d="M8.07886 60.1441C9.47972 60.7044 10.1955 62.2563 9.76457 63.7022C8.84627 66.7838 8.31064 69.3056 7.81436 72.6349C7.58407 74.1798 6.18205 75.2824 4.63034 75.1034L2.85867 74.8989C1.2832 74.7172 0.151409 73.2851 0.381027 71.7159C0.909615 68.1035 1.537 65.1992 2.57899 61.3358C3.02005 59.7005 4.796 58.8309 6.36861 59.46L8.07886 60.1441Z" fill="white"/>
<path d="M73.5224 32.5598C73.0182 30.9032 74.0909 29.1701 75.8089 28.9532C77.1725 28.7811 78.3564 28.6774 79.5918 28.6221C81.2144 28.5494 82.5074 29.9226 82.4336 31.5451L82.3918 32.4657C82.3289 33.8488 81.2827 34.985 79.9118 35.1782C78.9241 35.3174 78.0222 35.4521 77.0334 35.6061C75.6212 35.8261 74.2588 34.9792 73.8426 33.6119L73.5224 32.5598Z" fill="white"/>
<path d="M53.4485 29.5159C54.5932 28.7931 55.0981 27.3718 54.6396 26.098L54.0244 24.3891C53.4175 22.7033 51.4216 21.9857 49.896 22.9251C34.9118 32.1512 27.6854 39.9237 20.2286 55.3639C19.4836 56.9066 20.2929 58.7435 21.9245 59.2657L23.5759 59.7941C24.9572 60.2361 26.4488 59.5666 27.0733 58.2576C33.437 44.9207 39.7964 38.1359 53.4485 29.5159Z" fill="white"/>
<path d="M48.3213 12.7877C49.0994 14.1044 48.6964 15.8021 47.4226 16.6486C29.6739 28.4425 21.3894 36.9644 13.88 53.6621C13.285 54.9851 11.8075 55.6874 10.4167 55.2753L8.36783 54.6682C6.67798 54.1675 5.84164 52.2627 6.63843 50.6906C16.4037 31.4234 25.654 22.3887 43.4986 10.5045C44.8535 9.60215 46.6901 10.0272 47.5183 11.4287L48.3213 12.7877Z" fill="white"/>
<path d="M55.7062 36.3043C57.0832 35.3568 58.9704 35.8289 59.7708 37.2963L60.4162 38.4796C61.1431 39.8122 60.6974 41.4774 59.4222 42.3008C49.5681 48.6636 44.8596 53.7981 40.4803 63.3249C39.8636 64.6666 38.3511 65.3678 36.9446 64.9178L35.4633 64.4438C33.7932 63.9093 32.9924 62.0047 33.8162 60.4568C39.4735 49.8274 44.8006 43.8078 55.7062 36.3043Z" fill="white"/>
<path d="M133.615 155.387C131.947 156.658 129.559 156.298 128.34 154.591V154.591C127.188 152.978 127.505 150.744 129.061 149.515L134.504 145.219C136.006 144.032 138.159 144.159 139.512 145.512V145.512C141.129 147.129 140.949 149.799 139.131 151.185L133.615 155.387Z" fill="white"/>
<path d="M133.615 155.387C131.947 156.658 129.559 156.298 128.34 154.591V154.591C127.188 152.978 127.505 150.744 129.061 149.515L134.504 145.219C136.006 144.032 138.159 144.159 139.512 145.512V145.512C141.129 147.129 140.949 149.799 139.131 151.185L133.615 155.387Z" fill="white"/>
<path d="M144.942 140.715C147.64 143.695 147.44 146.321 144.72 148.785C142.291 150.772 139.804 151.216 137.265 148.412C134.831 145.725 134.045 143.034 137.049 140.314C139.882 137.748 142.191 137.677 144.942 140.715Z" fill="white"/>
</svg>
