<svg width="467" height="261" viewBox="0 0 467 261" fill="none" xmlns="http://www.w3.org/2000/svg">
    <path d="M104.628 2.4316C102.16 2.93286 100.402 5.28455 101.079 7.71049C101.436 8.98756 101.905 10.0913 102.537 11.2173C103.486 12.9103 105.484 13.6595 107.397 13.3322C112.724 12.4208 116.826 11.9146 122.384 11.5222C124.819 11.3503 126.834 9.48194 126.847 7.04118C126.85 6.45206 126.843 5.80868 126.826 5.09234C126.759 2.41542 124.492 0.33295 121.816 0.431336C115.828 0.651484 110.996 1.13852 104.628 2.4316Z" fill="#007EA7"/>
    <path d="M107.373 29.1811C106.659 26.2052 108.762 23.2918 111.811 23.0322L121.182 22.2347C124.1 21.9864 126.606 24.288 126.606 27.2167V27.8735C126.606 30.5763 124.456 32.7727 121.758 32.9305C118.875 33.099 116.303 33.353 113.235 33.7787C110.642 34.1385 108.172 32.509 107.561 29.9637L107.373 29.1811Z" fill="#007EA7"/>
    <path d="M117.529 70.5462C117.292 68.8337 118.278 67.143 119.912 66.5777C121.13 66.1563 122.331 65.994 123.742 66.0335C125.971 66.0959 127.745 67.9852 127.708 70.2147C127.698 70.8003 127.66 71.3443 127.593 71.8702C127.302 74.1484 125.025 75.3749 122.729 75.4213V75.4213C120.83 75.4596 118.848 74.6776 118.149 72.9118C117.845 72.1457 117.646 71.3878 117.529 70.5462Z" fill="#00171F"/>
    <path d="M92.8636 81.4567C91.8997 79.8624 92.2897 77.8046 93.6342 76.5149C94.1829 75.9886 94.7347 75.5147 95.3418 75.058C97.142 73.7036 99.7031 74.1134 101.109 75.8738C101.707 76.6228 102.198 77.3248 102.633 78.0449C103.767 79.9233 103.11 82.3059 101.434 83.7223C101.324 83.8149 101.215 83.9076 101.105 84.0009C99.5632 85.3077 97.3294 85.6695 95.6846 84.4952C94.5313 83.6718 93.6426 82.7452 92.8636 81.4567Z" fill="#00171F"/>
    <path d="M78.4751 98.6456C76.5295 97.2896 73.8395 98.0213 72.7005 100.101C72.608 100.27 72.5168 100.442 72.4265 100.616C71.1965 102.993 72.4705 105.84 74.9307 106.894L76.054 107.376C78.0616 108.236 80.3269 107.191 81.3401 105.256V105.256C82.131 103.746 82.073 101.895 80.8725 100.684C80.0832 99.8884 79.3194 99.234 78.4751 98.6456Z" fill="#00171F"/>
    <path d="M45.1428 110.16C45.7003 107.334 48.7252 105.833 51.4355 106.808L52.1576 107.068C54.9526 108.074 56.0973 111.258 55.5268 114.173C55.4887 114.368 55.4541 114.563 55.4227 114.761C54.981 117.547 52.8647 119.903 50.0437 119.903H49.361C46.5552 119.903 44.255 117.591 44.4961 114.795C44.6363 113.17 44.8413 111.689 45.1428 110.16Z" fill="#00171F"/>
    <path d="M32.4235 99.354C34.6882 100.339 35.8793 102.827 35.2956 105.226C34.6231 107.99 34.1446 110.366 33.7766 113.135C33.4338 115.714 31.2923 117.713 28.6906 117.713H27.4183C24.3117 117.713 21.9447 114.907 22.5186 111.854C23.1732 108.372 23.8166 105.38 24.7212 102.025C25.4948 99.1552 28.6616 97.7185 31.3871 98.9035L32.4235 99.354Z" fill="#00171F"/>
    <path d="M11.8475 92.312C14.299 93.2926 15.5486 96.0071 14.8077 98.5415C13.5535 102.832 12.7789 106.465 12.0731 111.078C11.6596 113.78 9.20905 115.709 6.49347 115.396L5.00282 115.224C2.24566 114.906 0.262372 112.4 0.675691 109.655C1.43657 104.603 2.34257 100.398 3.77706 95.0169C4.54055 92.1528 7.65025 90.6331 10.4024 91.734L11.8475 92.312Z" fill="#00171F"/>
    <path d="M49.2873 141.14C51.8854 141.022 54.0866 142.928 54.648 145.467C54.848 146.373 55.0762 147.246 55.3464 148.149C56.1251 150.75 54.9445 153.58 52.4315 154.608L52.0236 154.775C49.4356 155.834 46.4247 154.58 45.6527 151.893C45.112 150.01 44.7631 148.242 44.5441 146.256C44.2457 143.552 46.42 141.271 49.138 141.147L49.2873 141.14Z" fill="#007EA7"/>
    <path d="M49.2873 141.14C51.8854 141.022 54.0866 142.928 54.648 145.467C54.848 146.373 55.0762 147.246 55.3464 148.149C56.1251 150.75 54.9445 153.58 52.4315 154.608L52.0236 154.775C49.4356 155.834 46.4247 154.58 45.6527 151.893C45.112 150.01 44.7631 148.242 44.5441 146.256C44.2457 143.552 46.42 141.271 49.138 141.147L49.2873 141.14Z" fill="#003459" fill-opacity="0.25"/>
    <path d="M33.471 147.228C32.8635 144.859 30.6312 143.277 28.1945 143.489L27.9765 143.508C24.9832 143.768 22.8939 146.591 23.5191 149.53L24.5326 154.293L25.4497 158.603C26.1077 161.696 29.4345 163.409 32.3339 162.148L32.8907 161.906C35.1426 160.927 36.3503 158.458 35.7404 156.079L33.471 147.228Z" fill="#007EA7"/>
    <path d="M33.471 147.228C32.8635 144.859 30.6312 143.277 28.1945 143.489L27.9765 143.508C24.9832 143.768 22.8939 146.591 23.5191 149.53L24.5326 154.293L25.4497 158.603C26.1077 161.696 29.4345 163.409 32.3339 162.148L32.8907 161.906C35.1426 160.927 36.3503 158.458 35.7404 156.079L33.471 147.228Z" fill="#003459" fill-opacity="0.25"/>
    <path d="M100.76 177.466C98.8099 176.114 96.0027 176.15 94.4745 177.964C94.1302 178.373 93.7928 178.774 93.4526 179.178C91.6789 181.284 91.9015 184.485 94.1309 186.101C94.4579 186.338 94.7743 186.558 95.0854 186.765C97.0252 188.055 99.6037 187.392 100.907 185.461C101.414 184.711 101.87 183.985 102.312 183.225C103.485 181.205 102.68 178.796 100.76 177.466V177.466Z" fill="#007EA7"/>
    <path d="M100.76 177.466C98.8099 176.114 96.0027 176.15 94.4745 177.964C94.1302 178.373 93.7928 178.774 93.4526 179.178C91.6789 181.284 91.9015 184.485 94.1309 186.101C94.4579 186.338 94.7743 186.558 95.0854 186.765C97.0252 188.055 99.6037 187.392 100.907 185.461C101.414 184.711 101.87 183.985 102.312 183.225C103.485 181.205 102.68 178.796 100.76 177.466V177.466Z" fill="#003459" fill-opacity="0.25"/>
    <path d="M59.9965 208.058C58.2716 209.986 55.3445 210.298 53.3313 208.674C50.0055 205.99 47.6656 203.658 45.3931 200.61C43.8985 198.606 44.3581 195.805 46.2708 194.194L47.1283 193.472C49.3551 191.597 52.6717 192.044 54.5432 194.274C56.2118 196.262 57.9 197.955 60.0368 199.752C62.2998 201.655 62.688 205.05 60.7164 207.254L59.9965 208.058Z" fill="#007EA7"/>
    <path d="M59.9965 208.058C58.2716 209.986 55.3445 210.298 53.3313 208.674C50.0055 205.99 47.6656 203.658 45.3931 200.61C43.8985 198.606 44.3581 195.805 46.2708 194.194L47.1283 193.472C49.3551 191.597 52.6717 192.044 54.5432 194.274C56.2118 196.262 57.9 197.955 60.0368 199.752C62.2998 201.655 62.688 205.05 60.7164 207.254L59.9965 208.058Z" fill="#003459" fill-opacity="0.25"/>
    <path d="M52.2207 229.522C53.8633 227.293 56.9976 226.835 59.2662 228.423C63.6374 231.482 67.2385 233.622 71.8746 236.01C74.2818 237.25 75.3339 240.149 74.2133 242.614L73.8492 243.415C72.7323 245.872 69.8589 247.014 67.3963 245.909C61.4949 243.261 57.2877 240.816 52.4281 236.764C50.4699 235.132 50.2099 232.251 51.7222 230.199L52.2207 229.522Z" fill="#00171F"/>
    <path d="M127.044 233.838C127.044 230.808 124.369 228.553 121.339 228.609C118.933 228.654 116.856 228.411 114.74 227.81C111.696 226.945 108.283 228.335 107.43 231.382L107.209 232.173C106.527 234.605 107.757 237.2 110.151 238.005C114.273 239.391 117.767 239.939 122.232 240.01C124.918 240.053 127.044 237.813 127.044 235.127V233.838Z" fill="#007EA7"/>
    <path d="M127.044 233.838C127.044 230.808 124.369 228.553 121.339 228.609C118.933 228.654 116.856 228.411 114.74 227.81C111.696 226.945 108.283 228.335 107.43 231.382L107.209 232.173C106.527 234.605 107.757 237.2 110.151 238.005C114.273 239.391 117.767 239.939 122.232 240.01C124.918 240.053 127.044 237.813 127.044 235.127V233.838Z" fill="#003459" fill-opacity="0.5"/>
    <path d="M138.32 206.449C135.869 206.813 134.053 208.917 134.053 211.395V212.514C134.053 215.307 136.344 217.595 139.131 217.401C140.73 217.289 142.212 217.124 143.762 216.878C146.599 216.43 148.271 213.523 147.467 210.766L147.102 209.514C146.402 207.116 144.04 205.602 141.569 205.968L138.32 206.449Z" fill="#007EA7"/>
    <path d="M138.32 206.449C135.869 206.813 134.053 208.917 134.053 211.395V212.514C134.053 215.307 136.344 217.595 139.131 217.401C140.73 217.289 142.212 217.124 143.762 216.878C146.599 216.43 148.271 213.523 147.467 210.766L147.102 209.514C146.402 207.116 144.04 205.602 141.569 205.968L138.32 206.449Z" fill="#003459" fill-opacity="0.5"/>
    <path d="M163.493 224.092C161.185 224.934 159.747 227.265 160.135 229.691L160.285 230.63C160.772 233.672 163.879 235.58 166.757 234.481C171.296 232.749 174.736 230.993 178.48 228.347C180.647 226.815 181.026 223.798 179.473 221.647L179.296 221.403C177.751 219.263 174.823 218.722 172.521 220.012C169.776 221.55 167.125 222.765 163.493 224.092Z" fill="#007EA7"/>
    <path d="M163.493 224.092C161.185 224.934 159.747 227.265 160.135 229.691L160.285 230.63C160.772 233.672 163.879 235.58 166.757 234.481C171.296 232.749 174.736 230.993 178.48 228.347C180.647 226.815 181.026 223.798 179.473 221.647L179.296 221.403C177.751 219.263 174.823 218.722 172.521 220.012C169.776 221.55 167.125 222.765 163.493 224.092Z" fill="#003459" fill-opacity="0.75"/>
    <path d="M184.311 197.593C186.719 195.873 187.111 192.448 185.153 190.229V190.229C183.489 188.344 180.683 187.99 178.604 189.404L175.196 191.721C173.004 193.212 172.375 196.186 173.739 198.459V198.459C175.241 200.962 178.579 201.687 180.954 199.991L184.311 197.593Z" fill="#007EA7"/>
    <path d="M184.311 197.593C186.719 195.873 187.111 192.448 185.153 190.229V190.229C183.489 188.344 180.683 187.99 178.604 189.404L175.196 191.721C173.004 193.212 172.375 196.186 173.739 198.459V198.459C175.241 200.962 178.579 201.687 180.954 199.991L184.311 197.593Z" fill="#003459" fill-opacity="0.5"/>
    <path d="M168.95 174.806C167.521 173.462 165.328 173.352 163.773 174.549V174.549C162.091 175.842 161.713 178.224 162.911 179.974L163.97 181.523C165.33 183.509 168.077 183.95 169.989 182.488V182.488C172.047 180.913 172.203 177.868 170.316 176.092L168.95 174.806Z" fill="#007EA7"/>
    <path d="M168.95 174.806C167.521 173.462 165.328 173.352 163.773 174.549V174.549C162.091 175.842 161.713 178.224 162.911 179.974L163.97 181.523C165.33 183.509 168.077 183.95 169.989 182.488V182.488C172.047 180.913 172.203 177.868 170.316 176.092L168.95 174.806Z" fill="#003459" fill-opacity="0.5"/>
    <path d="M112.941 50.9109C112.059 48.0117 113.935 44.9719 116.945 44.6159C118.514 44.4303 119.944 44.3051 121.396 44.2262C124.235 44.0721 126.498 46.4814 126.369 49.321L126.358 49.5699C126.248 51.9903 124.417 53.9775 122.018 54.3198C120.876 54.4828 119.794 54.6441 118.652 54.8203C116.18 55.2018 113.796 53.721 113.068 51.3281L112.941 50.9109Z" fill="#007EA7"/>
    <path d="M81.5283 45.8345C83.5291 44.5656 84.4126 42.0793 83.6101 39.8501L83.0907 38.4074C82.0286 35.4572 78.5391 34.1981 75.874 35.8501C53.527 49.7026 42.5412 61.5304 31.3186 84.5769C30.006 87.2725 31.427 90.4802 34.2825 91.3939L35.6245 91.8233C38.0419 92.5969 40.6489 91.429 41.7491 89.1416C51.362 69.1554 61.0563 58.8178 81.5283 45.8345Z" fill="#00171F"/>
    <path d="M73.7912 19.4046C75.1528 21.709 74.4457 24.6805 72.2185 26.1651C45.5229 43.9602 32.8945 56.9689 21.5099 82.0855C20.4619 84.3977 17.8774 85.6271 15.4434 84.9059L13.5296 84.3388C10.5723 83.4626 9.10622 80.132 10.5085 77.3847C25.2626 48.4794 39.3486 34.6866 66.1583 16.7739C68.527 15.1913 71.7414 15.9359 73.1907 18.3885L73.7912 19.4046Z" fill="#00171F"/>
    <path d="M84.858 56.3591C87.2624 54.6929 90.57 55.5175 91.9708 58.0856L92.3573 58.7941C93.6294 61.1263 92.8444 64.0416 90.6175 65.4902C76.0216 74.9844 68.882 82.7707 62.3077 96.8911C61.2169 99.2339 58.5717 100.463 56.1104 99.6756L55.066 99.3413C52.1432 98.4061 50.7385 95.0749 52.1914 92.372C60.6441 76.6477 68.7275 67.5368 84.858 56.3591Z" fill="#00171F"/>
    <path d="M77.1514 143.084C76.574 140.812 74.5584 139.179 72.2146 139.179H71.7041C68.5843 139.179 66.212 142.012 66.9066 145.054C69.6551 157.088 73.5475 164.683 81.4252 174.083C83.2997 176.32 86.7024 176.353 88.7064 174.231L89.1913 173.718C91.0118 171.79 90.9936 168.788 89.2596 166.782C82.8147 159.327 79.7058 153.134 77.1514 143.084Z" fill="#00171F"/>
    <path d="M89.962 197.239C92.0761 198.629 92.8794 201.374 91.7479 203.637V203.637C90.4694 206.194 87.2622 207.108 84.8671 205.547C68.7934 195.074 60.5385 186.024 52.4725 168.464C51.29 165.89 52.5784 162.874 55.2259 161.865L55.3533 161.817C57.7526 160.903 60.4509 161.963 61.6307 164.243C69.3193 179.104 75.5896 187.786 89.962 197.239Z" fill="#00171F"/>
    <path d="M12.2213 149.349C11.73 146.821 9.43074 145.031 6.86333 145.236L5.83012 145.319C2.92324 145.551 0.827468 148.225 1.34479 151.095C7.01426 182.547 16.4288 199.834 39.2138 224.193C41.2004 226.317 44.5852 226.262 46.5243 224.095L47.2844 223.245C49.0297 221.295 48.963 218.323 47.1742 216.412C25.7978 193.577 17.7464 177.786 12.2213 149.349Z" fill="#00171F"/>
    <path d="M151.043 182.763C153.137 181.969 155.549 182.636 156.766 184.516V184.516C158.208 186.745 157.41 189.751 154.981 190.823C144.205 195.577 135.775 196.231 122.973 194.955C120.194 194.678 118.287 192.054 118.809 189.31V189.31C119.26 186.941 121.391 185.271 123.8 185.392C134.785 185.941 142.252 186.099 151.043 182.763Z" fill="#00171F"/>
    <path d="M107.176 246.759C104.384 246.396 101.816 248.381 101.505 251.179L101.299 253.04C100.999 255.741 102.923 258.192 105.619 258.528C140.26 262.835 160.058 261.348 187.414 248.273C189.894 247.088 190.887 244.085 189.657 241.626L189.239 240.79C188.027 238.366 185.097 237.361 182.614 238.448C155.408 250.36 136.758 250.613 107.176 246.759Z" fill="#00171F"/>
    <path d="M129.672 99.3136C152.014 99.3136 162.09 110.266 162.09 131.294C161.214 149.255 153.767 161.521 132.739 161.521C112.587 161.521 98.5684 154.512 98.5684 131.294C98.5684 109.389 106.892 99.3136 129.672 99.3136Z" fill="#00171F"/>
    <path d="M139.354 0.666106C136.486 0.443897 134.053 2.73227 134.053 5.60869V6.57411C134.053 9.20943 136.11 11.3864 138.737 11.6064C168.456 14.0956 184.918 21.2772 208.305 40.5546C210.39 42.2734 213.473 42.0845 215.285 40.0807L216.786 38.422C218.72 36.2841 218.443 32.9458 216.163 31.1814C189.542 10.5798 171.289 3.14054 139.354 0.666106Z" fill="#00171F"/>
    <path d="M134.053 27.0261C134.053 24.1679 136.448 21.8825 139.298 22.1011C164.169 24.0094 178.832 30.5375 200.142 46.7973C202.522 48.6125 202.725 52.1074 200.609 54.2234L199.855 54.9778C198.057 56.7758 195.195 56.9284 193.178 55.3791C174.561 41.0724 161.459 35.46 138.658 33.1399C136.063 32.8758 134.053 30.7139 134.053 28.1057V27.0261Z" fill="#00171F"/>
    <path d="M139.237 44.0356C136.426 43.7868 134.053 46.0448 134.053 48.8666V48.8666C134.053 51.3937 135.972 53.5015 138.478 53.8248C154.964 55.9514 164.677 60.0236 177.69 70.3814C179.582 71.8876 182.285 71.8979 184.143 70.3496V70.3496C186.559 68.3359 186.546 64.6008 184.061 62.6727C168.866 50.8841 157.804 45.6792 139.237 44.0356Z" fill="#00171F"/>
    <path d="M139.096 66.742C136.345 66.5133 134.053 68.7446 134.053 71.5052V71.5052C134.053 73.8992 135.791 75.9284 138.142 76.3804C148.85 78.4387 155.198 81.12 162.867 86.2742C164.954 87.6774 167.762 87.4276 169.486 85.5959L169.65 85.4223C171.693 83.2514 171.399 79.7713 168.958 78.0601C158.927 71.028 151.254 67.7527 139.096 66.742Z" fill="#00171F"/>
    <path d="M104.092 2.5417C101.931 2.98975 100.413 5.03989 100.941 7.18269C101.345 8.82341 101.911 10.159 102.733 11.5587C103.594 13.0254 105.333 13.6884 107.009 13.3988C112.694 12.4164 116.943 11.8928 122.906 11.486C125.04 11.3404 126.807 9.70328 126.841 7.56503C126.856 6.68769 126.846 5.69021 126.809 4.49982C126.734 2.15485 124.754 0.331961 122.409 0.410509C115.975 0.626061 110.939 1.12199 104.092 2.5417Z" fill="#007EA7"/>
    <path d="M107.205 28.4807C106.579 25.8734 108.422 23.3207 111.093 23.0933L121.853 22.1776C124.41 21.96 126.606 23.9766 126.606 26.5426V28.4744C126.606 30.8424 124.722 32.7699 122.358 32.8968C119.048 33.0745 116.205 33.3536 112.666 33.8589C110.395 34.1829 108.23 32.7528 107.695 30.5227L107.205 28.4807Z" fill="#007EA7"/>
    <path d="M117.487 70.205C117.322 68.6993 118.174 67.2367 119.588 66.6955C121.051 66.136 122.461 65.9547 124.208 66.0533C126.158 66.1635 127.694 67.7951 127.71 69.7488C127.717 70.6867 127.658 71.5113 127.529 72.3085C127.205 74.3198 125.174 75.4144 123.137 75.4169C122.874 75.4172 122.611 75.4224 122.343 75.4324C120.66 75.4951 118.952 74.7824 118.283 73.2362C117.859 72.2548 117.608 71.3078 117.487 70.205Z" fill="#007EA7"/>
    <path d="M92.6741 81.1324C91.8715 79.711 92.2062 77.9264 93.3654 76.7772C94.1167 76.0322 94.8581 75.3961 95.7229 74.7787C97.3293 73.6317 99.552 73.9866 100.811 75.5071C101.662 76.5356 102.306 77.4602 102.864 78.439C103.817 80.1087 103.253 82.1886 101.783 83.4275C101.452 83.7065 101.126 83.9829 100.79 84.2684C99.4405 85.4151 97.4966 85.714 96.0245 84.7299C94.6042 83.7804 93.5719 82.7223 92.6741 81.1324Z" fill="#007EA7"/>
    <path d="M78.057 98.3638C76.3161 97.2295 73.9827 97.8602 72.9472 99.6617C72.6738 100.137 72.4151 100.625 72.1602 101.146C71.1294 103.252 72.2303 105.737 74.3859 106.661L76.054 107.376C78.0616 108.236 80.3269 107.191 81.3401 105.256C82.131 103.746 82.073 101.895 80.8725 100.684C79.955 99.7591 79.072 99.0252 78.057 98.3638Z" fill="#007EA7"/>
    <path d="M45.275 109.516C45.8007 107.047 48.4418 105.73 50.8165 106.585L52.8054 107.301C55.2543 108.183 56.2813 110.97 55.6733 113.5C55.5245 114.12 55.4135 114.743 55.3344 115.393C55.0361 117.847 53.1537 119.903 50.682 119.903H48.7276C46.2692 119.903 44.2626 117.878 44.4455 115.426C44.6029 113.315 44.8578 111.475 45.275 109.516Z" fill="#007EA7"/>
    <path d="M32.9111 99.566C34.8953 100.429 35.942 102.61 35.4223 104.71C34.6356 107.889 34.1028 110.51 33.7036 113.7C33.4206 115.962 31.5402 117.713 29.2607 117.713H26.6812C23.9593 117.713 21.8883 115.255 22.3834 112.579C23.1291 108.548 23.8362 105.225 24.9025 101.36C25.595 98.8501 28.3673 97.5905 30.7553 98.6287L32.9111 99.566Z" fill="#007EA7"/>
    <path d="M12.3876 92.528C14.5356 93.3872 15.633 95.7667 14.9723 97.9838C13.5643 102.709 12.743 106.576 11.982 111.681C11.6289 114.05 9.47914 115.74 7.09985 115.466L4.38329 115.152C1.96757 114.873 0.23216 112.678 0.584241 110.271C1.39474 104.733 2.35674 100.279 3.95446 94.3554C4.63075 91.8479 7.35387 90.5145 9.7652 91.4791L12.3876 92.528Z" fill="#007EA7"/>
    <path d="M112.734 50.2321C111.961 47.692 113.606 45.0346 116.24 44.7021C118.331 44.4381 120.146 44.2792 122.041 44.1943C124.529 44.0828 126.511 46.1884 126.398 48.6763L126.334 50.0879C126.238 52.2086 124.634 53.9507 122.531 54.247C121.017 54.4605 119.634 54.667 118.118 54.9032C115.952 55.2405 113.863 53.942 113.225 51.8454L112.734 50.2321Z" fill="#007EA7"/>
    <path d="M81.9544 45.5649C83.7096 44.4566 84.4838 42.2772 83.7807 40.3241L82.8374 37.7037C81.9068 35.1189 78.8465 34.0185 76.5071 35.4589C53.5315 49.6056 42.4509 61.5235 31.0172 85.1985C29.8748 87.5639 31.1158 90.3805 33.6176 91.1812L36.1497 91.9914C38.2677 92.6692 40.5548 91.6426 41.5125 89.6355C51.2701 69.1856 61.0211 58.7822 81.9544 45.5649Z" fill="#00171F"/>
    <path d="M74.0927 19.9149C75.2858 21.9339 74.6678 24.5371 72.7146 25.835C45.4999 43.9189 32.7971 56.9859 21.2826 82.589C20.3703 84.6175 18.1048 85.6944 15.9722 85.0626L12.8307 84.1317C10.2396 83.364 8.95718 80.4432 10.1789 78.0327C25.1524 48.4897 39.3362 34.6365 66.6979 16.414C68.7754 15.0304 71.5916 15.6822 72.8614 17.8311L74.0927 19.9149Z" fill="#00171F"/>
    <path d="M85.4161 55.9737C87.5276 54.5209 90.4212 55.2448 91.6485 57.4948L92.6382 59.3091C93.7527 61.3525 93.0694 63.9058 91.114 65.1684C76.0044 74.9247 68.7847 82.7975 62.0698 97.4053C61.1241 99.4626 58.805 100.538 56.6484 99.8477L54.3771 99.1209C51.8163 98.3014 50.5883 95.381 51.8515 93.0075C60.526 76.7091 68.6942 67.4791 85.4161 55.9737Z" fill="#00171F"/>
    <path d="M204.305 239.003C202.06 240.713 198.846 240.228 197.206 237.932L196.402 236.806C194.851 234.635 195.278 231.629 197.372 229.976L206.789 222.541C208.779 220.97 211.63 221.137 213.423 222.93L214.557 224.064C216.698 226.205 216.46 229.742 214.052 231.577L204.305 239.003Z" fill="#007EA7"/>
    <path d="M204.305 239.003C202.06 240.713 198.846 240.228 197.206 237.932L196.402 236.806C194.851 234.635 195.278 231.629 197.372 229.976L206.789 222.541C208.779 220.97 211.63 221.137 213.423 222.93L214.557 224.064C216.698 226.205 216.46 229.742 214.052 231.577L204.305 239.003Z" fill="#003459" fill-opacity="0.75"/>
    <path d="M222.245 216.07C226.382 220.638 226.075 224.666 221.904 228.443C218.179 231.491 214.367 232.171 210.473 227.872C206.742 223.751 205.536 219.625 210.142 215.455C214.486 211.52 218.026 211.412 222.245 216.07Z" fill="#007EA7"/>
    <path d="M222.245 216.07C226.382 220.638 226.075 224.666 221.904 228.443C218.179 231.491 214.367 232.171 210.473 227.872C206.742 223.751 205.536 219.625 210.142 215.455C214.486 211.52 218.026 211.412 222.245 216.07Z" fill="#003459" fill-opacity="0.75"/>
    <path d="M243.356 88.9383C241.729 89.7738 240.542 90.8291 239.574 92.2802C238.299 94.1271 238.123 94.7867 238.123 97.2492C238.123 102.482 240.146 104.725 246.786 106.835C251.359 108.242 252.371 109.078 252.327 111.189C252.283 113.343 251.227 114.443 248.853 114.794C247.27 115.014 246.434 114.838 243.928 113.651C242.257 112.86 240.498 112.332 240.058 112.42C239.618 112.508 238.695 113.387 237.991 114.443C236.804 116.202 236.76 116.377 237.42 117.125C237.86 117.609 239.399 118.532 240.894 119.192C243.268 120.335 244.148 120.467 247.797 120.467C251.227 120.467 252.283 120.291 253.734 119.5C255.976 118.312 257.647 116.509 258.527 114.355C259.406 112.244 259.45 107.847 258.615 106.22C257.691 104.505 255.229 102.394 253.206 101.734C247.006 99.6237 246.258 99.2719 245.467 98.1726C244.675 97.1173 244.675 96.8534 245.159 95.6222C246.17 93.1597 249.205 92.7639 253.03 94.5229C254.349 95.1385 255.669 95.5782 255.976 95.4463C256.284 95.3144 257.076 94.303 257.735 93.1597L258.967 91.093L257.647 90.0376C255.844 88.5865 252.546 87.7071 248.853 87.7071C246.258 87.7071 245.291 87.9269 243.356 88.9383Z" fill="#00171F"/>
    <path d="M216.004 88.6744C215.872 88.9822 213.19 95.9739 209.98 104.197C206.77 112.42 204.088 119.411 203.956 119.675C203.78 120.115 204.615 120.247 207.254 120.247C211.299 120.247 211.387 120.203 212.838 116.157L213.85 113.431H220.094H226.382L227.437 116.289C228.053 117.872 228.713 119.368 228.932 119.675C229.196 119.939 230.911 120.247 232.89 120.335C235.836 120.423 236.364 120.379 236.232 119.807C236.056 119.192 226.294 93.9072 224.711 89.9936L223.963 88.1467H220.094C217.412 88.1467 216.18 88.3226 216.004 88.6744ZM222.249 100.987C223.348 104.197 224.271 107.099 224.403 107.363C224.535 107.803 223.48 107.935 220.094 107.935C216.664 107.935 215.653 107.803 215.828 107.363C215.916 107.099 216.884 104.197 217.939 100.987C218.995 97.8208 219.962 95.1824 220.094 95.1824C220.226 95.1824 221.193 97.8208 222.249 100.987Z" fill="#00171F"/>
    <path d="M261.429 91.0048V93.863H266.046H270.663V107.055V120.247H274.401H278.139V107.055V93.863H282.756H287.373V91.0048V88.1466H274.401H261.429V91.0048Z" fill="#00171F"/>
    <path d="M293.793 95.93C292.122 100.239 289.923 106.044 288.824 108.814C287.768 111.584 286.317 115.322 285.614 117.037L284.338 120.247H287.724C289.571 120.247 291.374 120.071 291.682 119.895C292.122 119.587 294.408 114.135 294.408 113.387C294.408 113.299 297.266 113.211 300.74 113.211H307.116L308.084 116.289C308.611 117.96 309.271 119.543 309.535 119.763C309.799 119.983 311.558 120.247 313.449 120.335L316.878 120.467L316.615 119.368C316.439 118.796 315.427 116.026 314.328 113.211C313.229 110.441 311.909 106.967 311.338 105.516C309.667 101.119 306.633 93.3356 305.621 90.7852L304.698 88.3666L300.74 88.2347L296.783 88.1028L293.793 95.93ZM302.939 101.295C304.038 104.549 304.962 107.363 304.962 107.583C304.962 107.759 302.983 107.935 300.608 107.935H296.211L298.19 102.086C300.564 94.9186 300.564 95.0066 300.784 95.2264C300.872 95.3583 301.84 98.0847 302.939 101.295Z" fill="#00171F"/>
    <path d="M319.913 104.153V120.159L322.991 120.335L326.069 120.467V110.441C326.069 104.725 326.245 100.459 326.465 100.459C326.685 100.459 330.027 104.461 333.896 109.342C343.219 121.127 342.295 120.247 345.417 120.247H348.056V104.197V88.1468H344.89H341.679L341.811 98.3485C341.943 108.55 341.943 108.594 341.064 107.715C340.272 106.879 337.458 103.361 329.103 92.632L325.585 88.1468H322.727H319.913V104.153Z" fill="#00171F"/>
    <path d="M363.095 88.8944C362.831 89.3341 361.951 91.6647 361.028 94.0832C360.148 96.5017 357.554 103.274 355.267 109.122C352.981 114.97 351.134 119.851 351.134 120.027C351.134 120.511 358.082 120.247 358.521 119.675C358.741 119.412 359.401 117.829 359.972 116.158L360.984 113.167L367.316 113.299L373.648 113.431L374.659 116.465C375.231 118.136 375.935 119.632 376.286 119.851C376.594 120.071 378.353 120.247 380.2 120.247H383.586L377.386 104.197L371.186 88.1468H367.316C364.106 88.1468 363.402 88.2788 363.095 88.8944ZM367.976 96.5897C368.195 97.5571 370.922 105.472 371.581 107.143C371.889 107.847 371.493 107.935 367.448 107.935C364.985 107.935 363.007 107.803 363.007 107.583C363.007 106.659 367.14 95.2265 367.404 95.4024C367.58 95.5343 367.844 96.062 367.976 96.5897Z" fill="#00171F"/>
    <path d="M395.106 104.197V120.247H398.844H402.581V104.197V88.1466H398.844H395.106V104.197Z" fill="#00171F"/>
    <path d="M406.539 91.0048V93.863H411.156H415.773V107.055V120.247H419.511H423.249V107.055V93.863H427.866H432.483V91.0048V88.1466H419.511H406.539V91.0048Z" fill="#00171F"/>
    <path d="M379.144 142.014C375.275 143.465 373.12 146.323 372.812 150.368C372.372 155.733 374.571 158.284 381.431 160.526C387.015 162.285 388.51 164.396 386.136 167.166C385.168 168.265 384.773 168.397 382.486 168.353C380.507 168.353 379.54 168.089 378.089 167.166C375.318 165.407 374.263 165.583 372.68 168.046L371.361 170.156L372.372 170.992C375.538 173.718 382.706 175.169 386.576 173.894C391.413 172.311 393.787 168.969 393.787 163.78C393.787 158.679 392.028 156.744 385.432 154.59C380.991 153.139 379.716 152.215 379.716 150.412C379.716 147.202 383.278 146.191 387.587 148.17C388.906 148.785 390.313 149.181 390.709 149.049C391.149 148.917 391.94 147.95 392.512 146.895C393.699 144.608 393.479 144.124 390.357 142.673C387.719 141.398 381.651 141.046 379.144 142.014Z" fill="#00171F"/>
    <path d="M204.703 152.699C204.703 165.715 204.967 167.122 208.133 170.332C211.079 173.366 214.246 174.465 219.214 174.246C223.612 174.026 226.206 173.014 228.669 170.596C231.967 167.254 232.187 166.33 232.318 153.314L232.45 141.794H228.713H224.931V152.347C224.931 163.78 224.755 164.791 222.556 166.814C220.885 168.353 217.192 168.617 215.125 167.342C212.355 165.627 212.179 164.747 212.179 152.611V141.794H208.441H204.703V152.699Z" fill="#00171F"/>
    <path d="M238.562 158.064V174.334H241.64H244.718V164.22C244.718 158.635 244.894 154.106 245.07 154.106C245.466 154.106 247.093 156.041 255.448 166.726C260.856 173.63 261.076 173.85 262.923 174.114C266.793 174.729 266.485 176.181 266.617 157.932L266.705 141.794H263.407H260.065L260.197 151.688C260.285 157.932 260.153 161.538 259.889 161.45C259.669 161.362 256.063 156.964 251.842 151.644L244.234 142.014L241.376 141.882L238.562 141.75V158.064Z" fill="#00171F"/>
    <path d="M273.301 158.063V174.377L276.951 174.245L280.556 174.113L280.688 157.931L280.776 141.793H277.039H273.301V158.063Z" fill="#00171F"/>
    <path d="M283.635 142.322C283.767 142.629 286.713 149.929 290.143 158.504L296.431 174.114L299.509 174.246C301.664 174.334 302.763 174.202 303.071 173.806C303.423 173.366 313.273 149.137 315.735 142.541C315.999 141.882 315.691 141.794 312.613 141.794C310.678 141.794 308.875 141.97 308.524 142.19C307.996 142.541 303.027 155.645 300.916 162.373C300.433 163.912 299.861 165.012 299.685 164.792C299.553 164.616 297.75 159.779 295.727 154.106C293.749 148.434 291.814 143.333 291.462 142.761C290.934 141.882 290.539 141.794 287.153 141.794C284.382 141.794 283.503 141.926 283.635 142.322Z" fill="#00171F"/>
    <path d="M319.032 158.064V174.334L329.278 174.246L339.48 174.114V171.256V168.397L332.796 168.265L326.068 168.133V164.44V160.746L331.257 160.614L336.402 160.482L336.534 157.756L336.666 155.029L331.477 154.898L326.288 154.766V151.028V147.29L333.016 147.158L339.7 147.026V144.432V141.794H329.366H319.032V158.064Z" fill="#00171F"/>
    <path d="M344.537 158.063V174.377L348.187 174.245L351.793 174.113L351.924 168.045L352.056 162.021H353.551C355.31 162.021 355.97 162.812 359.444 168.881C360.675 171.123 361.994 173.19 362.39 173.498C363.182 174.157 371.141 174.685 370.877 174.07C370.041 172.091 363.182 161.493 362.522 161.097C361.686 160.658 361.774 160.526 363.577 159.383C366.523 157.536 367.843 154.985 367.843 151.204C367.843 147.026 366.743 145.135 363.269 143.332C360.675 142.013 360.587 142.013 352.584 141.881L344.537 141.749V158.063ZM357.905 147.686C359.84 148.477 360.807 149.928 360.807 151.995C360.807 155.073 357.861 157.14 353.464 157.184H352.012V152.127V147.07H354.211C355.442 147.07 357.113 147.334 357.905 147.686Z" fill="#00171F"/>
    <path d="M398.712 157.931L398.844 174.113L402.493 174.245L406.099 174.377V158.063V141.793H402.362H398.624L398.712 157.931Z" fill="#00171F"/>
    <path d="M410.057 144.652V147.51H414.674H419.291L419.379 160.79L419.511 174.114H423.029H426.547L426.679 160.834L426.766 147.554L431.296 147.422L435.781 147.29L436.001 144.652L436.221 142.013L438.815 146.411C440.266 148.829 442.553 152.743 443.96 155.073C448.093 161.977 447.873 161.274 447.873 168.177V174.334H451.611H455.349V168.045V161.801L457.504 158.064C458.647 155.997 461.197 151.6 463.176 148.214C465.155 144.872 466.782 142.057 466.782 141.97C466.782 141.882 465.111 141.794 463.044 141.794C460.01 141.794 459.175 141.926 458.647 142.541C458.295 142.981 456.624 146.147 454.953 149.621C453.282 153.095 451.787 155.909 451.611 155.909C451.435 155.909 449.808 152.875 448.005 149.181C446.203 145.487 444.488 142.321 444.224 142.145C443.916 141.97 436.133 141.794 426.898 141.794H410.057V144.652Z" fill="#00171F"/>
</svg>
