<svg width="100" height="115" viewBox="0 0 100 115" fill="none" xmlns="http://www.w3.org/2000/svg">
    <path d="M46.4341 1.63529C44.8166 1.93288 43.6173 3.57483 44.2948 5.07345C44.817 6.22832 46.1281 6.64697 47.379 6.44303C49.2529 6.13752 50.8312 5.94834 52.8141 5.79942C54.1011 5.70276 55.1328 5.27481 55.1494 3.98428C55.1676 2.56847 53.9287 0.905317 52.514 0.966373C50.4108 1.05715 48.6032 1.23622 46.4341 1.63529Z" fill="#007EA7"/>
    <path d="M46.7294 13.6376C46.395 12.2441 47.3796 10.8799 48.8074 10.7584L52.5372 10.441C53.8869 10.3261 55.0459 11.3907 55.0459 12.7453C55.0459 13.9954 54.0519 15.0103 52.8041 15.0865C51.6525 15.1568 50.6059 15.2602 49.3858 15.4262C48.1713 15.5916 47.0154 14.8294 46.7294 13.6376Z" fill="#007EA7"/>
    <path d="M51.1926 31.9163C50.9351 30.8904 51.5761 29.8025 52.6087 29.5735C52.8822 29.5128 53.1614 29.4798 53.4597 29.471C54.6307 29.4366 55.5876 30.4607 55.5114 31.6297C55.5029 31.7594 55.4908 31.8853 55.4751 32.0088C55.3486 32.9993 54.3587 33.5326 53.3603 33.5528C52.5347 33.5694 51.6732 33.2294 51.369 32.4617C51.2974 32.281 51.2391 32.1013 51.1926 31.9163Z" fill="#00171F"/>
    <path d="M40.6152 36.5366C39.9774 35.6702 40.2039 34.456 41.0152 33.7494C41.9961 32.895 43.5349 33.1232 44.2883 34.1836C44.3897 34.3263 44.4835 34.4674 44.5717 34.6095C45.1056 35.4698 44.8148 36.5584 44.042 37.2124C43.3301 37.8149 42.2798 38 41.5299 37.4456C41.175 37.1832 40.8786 36.8944 40.6152 36.5366Z" fill="#00171F"/>
    <path d="M34.2147 43.7177C33.3239 43.0742 32.0708 43.4161 31.5535 44.3857C31.5331 44.4241 31.5127 44.4628 31.4925 44.5018C30.9556 45.538 31.5113 46.7792 32.584 47.2389L33.067 47.4459C33.9398 47.82 34.9247 47.3658 35.3653 46.5245C35.7091 45.8679 35.6839 45.0629 35.162 44.5367C34.8486 44.2207 34.5446 43.9561 34.2147 43.7177Z" fill="#00171F"/>
    <path d="M19.5965 48.8166C19.8442 47.4988 21.2717 46.8063 22.5333 47.2605C23.8162 47.7223 24.3727 49.1423 24.1265 50.4835C23.8928 51.7571 22.9161 52.8928 21.6212 52.8928C20.3201 52.8928 19.2388 51.82 19.3593 50.5246C19.4145 49.9312 19.4908 49.3789 19.5965 48.8166Z" fill="#00171F"/>
    <path d="M13.9009 43.873C14.9984 44.3502 15.5738 45.5554 15.2958 46.7194C15.0484 47.7549 14.864 48.676 14.7182 49.7108C14.5414 50.9659 13.5004 51.9405 12.2329 51.9405C10.7195 51.9405 9.56436 50.5729 9.84883 49.0864C10.0964 47.7927 10.3464 46.6414 10.6769 45.3874C11.044 43.9947 12.5801 43.2987 13.9009 43.873Z" fill="#00171F"/>
    <path d="M4.86283 40.7813C6.09075 41.2724 6.71451 42.6314 6.35205 43.9032C5.88477 45.5429 5.57604 46.9854 5.29879 48.7366C5.08496 50.0873 3.86114 51.0527 2.50267 50.8959C1.1234 50.7368 0.12959 49.4832 0.343737 48.1113C0.647223 46.1672 1.00844 44.4856 1.54855 42.4267C1.92528 40.9906 3.48436 40.2299 4.86283 40.7813Z" fill="#00171F"/>
    <path d="M21.3978 62.1277C22.5452 62.0755 23.5167 62.9174 23.7668 64.0384C23.8454 64.3909 23.934 64.7329 24.037 65.0835C24.3843 66.2662 23.8504 67.5507 22.7095 68.0174C21.5345 68.4981 20.1653 67.9291 19.8222 66.7068C19.6053 65.934 19.4624 65.2007 19.3707 64.384C19.2366 63.19 20.1975 62.1822 21.3978 62.1277Z" fill="#007EA7"/>
    <path d="M21.3978 62.1277C22.5452 62.0755 23.5167 62.9174 23.7668 64.0384C23.8454 64.3909 23.934 64.7329 24.037 65.0835C24.3843 66.2662 23.8504 67.5507 22.7095 68.0174C21.5345 68.4981 20.1653 67.9291 19.8222 66.7068C19.6053 65.934 19.4624 65.2007 19.3707 64.384C19.2366 63.19 20.1975 62.1822 21.3978 62.1277Z" fill="#003459" fill-opacity="0.25"/>
    <path d="M14.5627 64.8127C14.2928 63.7598 13.3007 63.0568 12.2179 63.151C10.8877 63.2666 9.95916 64.521 10.237 65.827L10.6663 67.8447L11.0327 69.5667C11.3355 70.9898 12.8666 71.7782 14.2009 71.1981C15.2373 70.7475 15.7931 69.611 15.5124 68.5163L14.5627 64.8127Z" fill="#007EA7"/>
    <path d="M14.5627 64.8127C14.2928 63.7598 13.3007 63.0568 12.2179 63.151C10.8877 63.2666 9.95916 64.521 10.237 65.827L10.6663 67.8447L11.0327 69.5667C11.3355 70.9898 12.8666 71.7782 14.2009 71.1981C15.2373 70.7475 15.7931 69.611 15.5124 68.5163L14.5627 64.8127Z" fill="#003459" fill-opacity="0.25"/>
    <path d="M43.8087 77.9199C42.9608 77.3323 41.7403 77.3477 41.0759 78.1367C40.9649 78.2685 40.8556 78.3984 40.7461 78.5283C39.9116 79.5193 40.0124 81.0309 41.0711 81.7776C41.0995 81.7976 41.1276 81.8173 41.1557 81.8368C42.0963 82.4888 43.3686 82.1655 43.9974 81.2092C44.169 80.9481 44.3283 80.6909 44.4833 80.424C44.9934 79.5455 44.6436 78.4985 43.8087 77.9199Z" fill="#007EA7"/>
    <path d="M43.8087 77.9199C42.9608 77.3323 41.7403 77.3477 41.0759 78.1367C40.9649 78.2685 40.8556 78.3984 40.7461 78.5283C39.9116 79.5193 40.0124 81.0309 41.0711 81.7776C41.0995 81.7976 41.1276 81.8173 41.1557 81.8368C42.0963 82.4888 43.3686 82.1655 43.9974 81.2092C44.169 80.9481 44.3283 80.6909 44.4833 80.424C44.9934 79.5455 44.6436 78.4985 43.8087 77.9199Z" fill="#003459" fill-opacity="0.25"/>
    <path d="M26.2271 91.0626C25.397 91.9905 23.9868 92.1429 23.0229 91.3549C21.726 90.2947 20.777 89.3482 19.8675 88.1569C19.1319 87.1935 19.3573 85.8335 20.2845 85.0527C21.3639 84.1438 22.9679 84.364 23.889 85.4331C24.5069 86.1502 25.1416 86.785 25.9073 87.4433C26.9864 88.3712 27.1761 90.002 26.2271 91.0626Z" fill="#007EA7"/>
    <path d="M26.2271 91.0626C25.397 91.9905 23.9868 92.1429 23.0229 91.3549C21.726 90.2947 20.777 89.3482 19.8675 88.1569C19.1319 87.1935 19.3573 85.8335 20.2845 85.0527C21.3639 84.1438 22.9679 84.364 23.889 85.4331C24.5069 86.1502 25.1416 86.785 25.9073 87.4433C26.9864 88.3712 27.1761 90.002 26.2271 91.0626Z" fill="#003459" fill-opacity="0.25"/>
    <path d="M22.5901 100.709C23.3675 99.6536 24.8506 99.4381 25.9267 100.186C27.703 101.42 29.2006 102.311 31.0791 103.286C32.219 103.877 32.7187 105.251 32.1873 106.42C31.6577 107.585 30.2941 108.127 29.1283 107.599C26.7066 106.502 24.9371 105.469 22.9278 103.812C21.9969 103.045 21.8744 101.68 22.5901 100.709Z" fill="#00171F"/>
    <path d="M55.2364 102.734C55.2364 101.256 53.9304 100.166 52.4518 100.158C51.6064 100.154 50.8485 100.061 50.0872 99.8634C48.6518 99.4899 47.0527 100.133 46.6528 101.562C46.3336 102.701 46.9093 103.92 48.034 104.289C49.6863 104.831 51.1187 105.062 52.8889 105.108C54.1993 105.142 55.2364 104.045 55.2364 102.734Z" fill="#007EA7"/>
    <path d="M55.2364 102.734C55.2364 101.256 53.9304 100.166 52.4518 100.158C51.6064 100.154 50.8485 100.061 50.0872 99.8634C48.6518 99.4899 47.0527 100.133 46.6528 101.562C46.3336 102.701 46.9093 103.92 48.034 104.289C49.6863 104.831 51.1187 105.062 52.8889 105.108C54.1993 105.142 55.2364 104.045 55.2364 102.734Z" fill="#003459" fill-opacity="0.5"/>
    <path d="M60.3601 90.4888C59.1673 90.6655 58.2839 91.6894 58.2839 92.8953C58.2839 94.2542 59.3993 95.3715 60.7539 95.2633C61.2463 95.2239 61.7176 95.1717 62.1979 95.1024C63.6006 94.8998 64.4258 93.4605 64.029 92.0999C63.6838 90.9163 62.518 90.1691 61.2984 90.3498L60.3601 90.4888Z" fill="#007EA7"/>
    <path d="M60.3601 90.4888C59.1673 90.6655 58.2839 91.6894 58.2839 92.8953C58.2839 94.2542 59.3993 95.3715 60.7539 95.2633C61.2463 95.2239 61.7176 95.1717 62.1979 95.1024C63.6006 94.8998 64.4258 93.4605 64.029 92.0999C63.6838 90.9163 62.518 90.1691 61.2984 90.3498L60.3601 90.4888Z" fill="#003459" fill-opacity="0.5"/>
    <path d="M71.2476 98.1319C70.152 98.5371 69.4669 99.6447 69.6515 100.798C69.883 102.245 71.362 103.154 72.7273 102.623C74.5695 101.905 76.0011 101.166 77.5459 100.08C78.52 99.3956 78.6902 98.041 77.9932 97.0758C77.2997 96.1156 75.9866 95.8738 74.9519 96.4503C73.8206 97.0808 72.719 97.5876 71.2476 98.1319Z" fill="#007EA7"/>
    <path d="M71.2476 98.1319C70.152 98.5371 69.4669 99.6447 69.6515 100.798C69.883 102.245 71.362 103.154 72.7273 102.623C74.5695 101.905 76.0011 101.166 77.5459 100.08C78.52 99.3956 78.6902 98.041 77.9932 97.0758C77.2997 96.1156 75.9866 95.8738 74.9519 96.4503C73.8206 97.0808 72.719 97.5876 71.2476 98.1319Z" fill="#003459" fill-opacity="0.75"/>
    <path d="M80.1354 86.6708C81.1823 85.923 81.3525 84.4338 80.5013 83.4692C79.778 82.6494 78.5578 82.4957 77.6538 83.1104L76.1853 84.109C75.2248 84.7621 74.9411 86.0515 75.5387 87.0475C76.1966 88.144 77.6498 88.4462 78.6904 87.703L80.1354 86.6708Z" fill="#007EA7"/>
    <path d="M80.1354 86.6708C81.1823 85.923 81.3525 84.4338 80.5013 83.4692C79.778 82.6494 78.5578 82.4957 77.6538 83.1104L76.1853 84.109C75.2248 84.7621 74.9411 86.0515 75.5387 87.0475C76.1966 88.144 77.6498 88.4462 78.6904 87.703L80.1354 86.6708Z" fill="#003459" fill-opacity="0.5"/>
    <path d="M73.4565 76.7636C72.8353 76.179 71.8817 76.1316 71.2056 76.6516C70.4745 77.214 70.3101 78.2495 70.8309 79.0107L71.2915 79.6839C71.8824 80.5476 73.0768 80.739 73.9081 80.1033C74.8033 79.4188 74.871 78.0949 74.0504 77.3226L73.4565 76.7636Z" fill="#007EA7"/>
    <path d="M73.4565 76.7636C72.8353 76.179 71.8817 76.1316 71.2056 76.6516C70.4745 77.214 70.3101 78.2495 70.8309 79.0107L71.2915 79.6839C71.8824 80.5476 73.0768 80.739 73.9081 80.1033C74.8033 79.4188 74.871 78.0949 74.0504 77.3226L73.4565 76.7636Z" fill="#003459" fill-opacity="0.5"/>
    <path d="M49.1361 22.999C48.7359 21.6841 49.5869 20.3041 50.9523 20.1467C51.5717 20.0752 52.1431 20.0256 52.721 19.993C53.9877 19.9216 54.9979 20.9975 54.9403 22.2648C54.8912 23.3451 54.0741 24.2319 53.0037 24.385C52.5517 24.4497 52.12 24.514 51.6689 24.5834C50.5476 24.7558 49.4664 24.0843 49.1361 22.999Z" fill="#007EA7"/>
    <path d="M35.222 20.8321C36.2223 20.1942 36.6632 18.9508 36.2613 17.8346C35.7295 16.3573 33.9793 15.7276 32.648 16.56C23.2598 22.4301 18.5384 27.5231 13.7686 37.2232C13.1131 38.5563 13.8165 40.1489 15.2314 40.6017C16.4293 40.985 17.7201 40.4062 18.2693 39.2748C22.3754 30.817 26.5575 26.3575 35.222 20.8321Z" fill="#00171F"/>
    <path d="M31.9583 8.98654C32.6201 10.1065 32.2768 11.5501 31.1954 12.2732C19.8478 19.8606 14.3875 25.4758 9.50648 36.1119C8.95725 37.3087 7.61869 37.9444 6.35614 37.5703C4.82215 37.1158 4.05887 35.3921 4.79272 33.9704C11.0862 21.7781 17.1649 15.8283 28.5426 8.20242C29.6927 7.43153 31.2539 7.79449 31.9583 8.98654Z" fill="#00171F"/>
    <path d="M36.7408 25.3718C37.8674 24.5875 39.4197 24.975 40.0771 26.1801C40.6741 27.2746 40.3054 28.6422 39.2619 29.3243C33.0727 33.3696 29.9921 36.7225 27.1785 42.6991C26.6495 43.8228 25.3796 44.4129 24.1967 44.0344C22.792 43.5849 22.1158 41.984 22.8189 40.6875C26.4214 34.0444 29.91 30.1273 36.7408 25.3718Z" fill="#00171F"/>
    <path d="M33.5663 63.0583C33.3004 62.0207 32.3797 61.2735 31.3086 61.2735C29.883 61.2735 28.798 62.5669 29.1193 63.9558C30.3003 69.0609 31.9703 72.3275 35.2974 76.3238C36.1658 77.3669 37.7486 77.381 38.6806 76.3943C39.5273 75.4978 39.5183 74.1028 38.7155 73.1668C35.9948 69.9947 34.6603 67.3283 33.5663 63.0583Z" fill="#00171F"/>
    <path d="M39.1139 86.5169C40.0331 87.1214 40.3824 88.3149 39.8904 89.2989C39.3345 90.4106 37.9401 90.8078 36.8987 90.1292C29.919 85.5815 26.3301 81.6509 22.8274 74.0351C22.3055 72.9003 22.8736 71.5705 24.0408 71.1258C25.0987 70.7228 26.2883 71.1903 26.8087 72.1956C30.1457 78.6418 32.873 82.4121 39.1139 86.5169Z" fill="#00171F"/>
    <path d="M5.35293 65.8968C5.11486 64.6835 4.01158 63.8249 2.77904 63.9235C1.38353 64.0351 0.376691 65.3168 0.628199 66.694C3.08266 80.134 7.15058 87.615 16.8684 98.0423C17.8284 99.0724 19.4666 99.0443 20.4055 97.9949C21.2505 97.0505 21.2184 95.6122 20.3539 94.6854C11.2272 84.9011 7.74048 78.0648 5.35293 65.8968Z" fill="#00171F"/>
    <path d="M65.671 80.2231C66.5815 79.8777 67.6302 80.1679 68.1592 80.9854C68.7863 81.9545 68.4392 83.2613 67.3831 83.7273C62.6976 85.7944 59.0325 86.0786 53.4666 85.5241C52.2585 85.4037 51.4289 84.2624 51.6561 83.0697C51.8523 82.0397 52.7787 81.3135 53.8259 81.3659C58.6021 81.605 61.8485 81.6733 65.671 80.2231Z" fill="#00171F"/>
    <path d="M47.0089 108.101C45.5681 107.916 44.2471 108.94 44.0867 110.384C43.9319 111.777 44.924 113.043 46.3159 113.213C61.0563 115.016 69.6051 114.348 81.2997 108.794C82.482 108.232 82.9533 106.803 82.368 105.632C81.7908 104.478 80.3969 104 79.2135 104.514C67.6104 109.559 59.5677 109.712 47.0089 108.101Z" fill="#00171F"/>
    <path d="M56.3792 43.9407C66.0932 43.9407 70.474 48.7025 70.474 57.845C70.0931 65.6543 66.8551 70.9875 57.7125 70.9875C48.9509 70.9875 42.8558 67.94 42.8558 57.845C42.8558 48.3215 46.4747 43.9407 56.3792 43.9407Z" fill="#00171F"/>
    <path d="M60.81 1.06788C59.4428 0.95918 58.2839 2.05078 58.2839 3.4223C58.2839 4.67885 59.2641 5.7164 60.5161 5.82375C73.1635 6.90823 80.2818 9.98071 90.211 18.1006C91.3205 19.008 92.952 18.9062 93.9136 17.8434C94.9395 16.7094 94.7959 14.9404 93.5831 14.009C82.2859 5.33313 74.3979 2.14822 60.81 1.06788Z" fill="#00171F"/>
    <path d="M58.2839 12.7611C58.2839 11.3825 59.44 10.2796 60.8142 10.3897C71.3968 11.2375 77.7295 14.0501 86.8124 20.9506C87.958 21.821 88.0559 23.5018 87.0385 24.5191C86.1741 25.3836 84.8002 25.458 83.8293 24.7151C75.8794 18.6313 70.2177 16.2075 60.5036 15.192C59.2524 15.0612 58.2839 14.0192 58.2839 12.7611Z" fill="#00171F"/>
    <path d="M60.5378 19.9068C59.3157 19.7986 58.2839 20.7804 58.2839 22.0073C58.2839 23.106 59.1181 24.0224 60.2078 24.163C67.3745 25.0875 71.5975 26.8576 77.2541 31.3596C78.0783 32.0155 79.2528 32.022 80.062 31.3477C81.1144 30.4707 81.1053 28.8469 80.0229 28.0072C73.4184 22.8836 68.6089 20.6213 60.5378 19.9068Z" fill="#00171F"/>
    <path d="M60.4767 29.7792C59.2806 29.6797 58.2839 30.6498 58.2839 31.8501C58.2839 32.891 59.0396 33.7733 60.0618 33.9698C64.6999 34.8613 67.4567 36.0217 70.7739 38.2462C71.704 38.8698 72.9535 38.7587 73.721 37.9433C74.6305 36.9769 74.5002 35.4276 73.4128 34.667C69.0745 31.6324 65.7435 30.217 60.4767 29.7792Z" fill="#00171F"/>
    <path d="M45.2573 1.86599C44.3178 2.0608 43.6577 2.95216 43.8872 3.88381C44.0629 4.59717 44.3093 5.17788 44.6664 5.78643C45.0407 6.42412 45.7972 6.7124 46.5258 6.58649C48.9975 6.15935 50.845 5.9317 53.4374 5.75481C54.3651 5.69151 55.1335 4.97972 55.1485 4.05005C55.1546 3.6686 55.1506 3.23491 55.1342 2.71735C55.1018 1.69779 54.241 0.905236 53.2215 0.939388C50.4238 1.03311 48.2343 1.24873 45.2573 1.86599Z" fill="#007EA7"/>
    <path d="M46.6109 13.1438C46.3388 12.0102 47.1398 10.9003 48.3015 10.8015L52.9797 10.4033C54.0913 10.3087 55.0459 11.1855 55.0459 12.3012V13.1411C55.0459 14.1707 54.227 15.0087 53.1989 15.0639C51.7598 15.1411 50.5241 15.2625 48.985 15.4821C47.9979 15.623 47.0567 15.0012 46.8239 14.0316L46.6109 13.1438Z" fill="#007EA7"/>
    <path d="M51.0812 31.2848C51.0096 30.6302 51.3799 29.9942 51.995 29.7589C52.6309 29.5157 53.244 29.4369 54.0033 29.4797C54.8514 29.5276 55.519 30.2371 55.5259 31.0865C55.5293 31.4943 55.5034 31.8528 55.4476 32.1994C55.3067 33.0739 54.4236 33.5498 53.5378 33.5509C53.4233 33.551 53.3089 33.5533 53.1927 33.5576C52.4607 33.5849 51.7184 33.275 51.4275 32.6027C51.2429 32.176 51.1337 31.7643 51.0812 31.2848Z" fill="#007EA7"/>
    <path d="M40.2931 36.0359C39.9441 35.4179 40.0896 34.642 40.5936 34.1423C40.9203 33.8184 41.2427 33.5418 41.6187 33.2734C42.3171 32.7747 43.2835 32.929 43.8307 33.5901C44.2009 34.0373 44.4809 34.4393 44.7236 34.8648C45.1378 35.5908 44.8927 36.4951 44.2536 37.0337C44.1097 37.155 43.9676 37.2752 43.8216 37.3993C43.235 37.8979 42.3898 38.0278 41.7498 37.6C41.1323 37.1872 40.6834 36.7271 40.2931 36.0359Z" fill="#007EA7"/>
    <path d="M33.9378 43.5278C33.1809 43.0346 32.1664 43.3088 31.7162 44.0921C31.5973 44.2989 31.4848 44.5107 31.374 44.7372C30.9258 45.6531 31.4045 46.7335 32.3417 47.1351L33.0669 47.4459C33.9398 47.82 34.9247 47.3658 35.3653 46.5245C35.7091 45.8679 35.6839 45.0629 35.162 44.5367C34.7631 44.1344 34.3791 43.8153 33.9378 43.5278Z" fill="#007EA7"/>
    <path d="M19.6848 48.3765C19.9134 47.3032 21.0616 46.7307 22.0941 47.1024L22.9589 47.4137C24.0236 47.797 24.4701 49.0086 24.2058 50.1089C24.1411 50.3783 24.0928 50.6491 24.0584 50.9319C23.9287 51.9987 23.1103 52.8928 22.0357 52.8928H21.1859C20.1171 52.8928 19.2446 52.012 19.3241 50.9461C19.3926 50.0283 19.5034 49.2283 19.6848 48.3765Z" fill="#007EA7"/>
    <path d="M14.3092 44.0505C15.1719 44.4256 15.627 45.3738 15.401 46.287C15.0589 47.6691 14.8273 48.8087 14.6538 50.1958C14.5307 51.1792 13.7131 51.9405 12.722 51.9405H11.6005C10.4171 51.9405 9.51665 50.8718 9.73193 49.7082C10.0561 47.9558 10.3636 46.5108 10.8272 44.8306C11.1283 43.7392 12.3336 43.1916 13.3719 43.643L14.3092 44.0505Z" fill="#007EA7"/>
    <path d="M5.38591 40.9905C6.31981 41.364 6.79697 42.3986 6.50972 43.3626C5.89751 45.417 5.54043 47.0982 5.20957 49.3177C5.05604 50.3477 4.12137 51.0827 3.08689 50.9634L1.90578 50.8271C0.855466 50.7059 0.100939 49.7512 0.254018 48.705C0.60641 46.2968 1.02467 44.3606 1.71933 41.785C2.01337 40.6948 3.19734 40.1151 4.24574 40.5344L5.38591 40.9905Z" fill="#007EA7"/>
    <path d="M49.0149 22.601C48.6788 21.4965 49.3939 20.3412 50.5393 20.1966C51.4483 20.0818 52.2376 20.0127 53.0612 19.9758C54.1429 19.9274 55.0049 20.8428 54.9558 21.9245L54.9279 22.5383C54.886 23.4603 54.1885 24.2177 53.2745 24.3466C52.6161 24.4394 52.0148 24.5291 51.3556 24.6318C50.4141 24.7785 49.5059 24.2139 49.2284 23.3024L49.0149 22.601Z" fill="#007EA7"/>
    <path d="M35.6323 20.5717C36.3955 20.0899 36.7321 19.1423 36.4264 18.2931L36.0163 17.1538C35.6117 16.03 34.2811 15.5516 33.264 16.1778C23.2746 22.3285 18.4569 27.5102 13.4857 37.8037C12.9891 38.8322 13.5286 40.0568 14.6164 40.4049L15.7172 40.7572C16.6382 41.0519 17.6325 40.6055 18.0489 39.7328C22.2914 30.8416 26.5309 26.3184 35.6323 20.5717Z" fill="#00171F"/>
    <path d="M32.2142 9.41957C32.7329 10.2974 32.4643 11.4292 31.615 11.9935C19.7826 19.8561 14.2596 25.5374 9.25331 36.6692C8.85665 37.5511 7.87167 38.0194 6.94444 37.7446L5.57855 37.3399C4.45198 37.0061 3.89443 35.7362 4.42562 34.6882C10.9358 21.8434 17.1027 15.8203 28.9991 7.89743C29.9023 7.29587 31.1268 7.57926 31.6789 8.51357L32.2142 9.41957Z" fill="#00171F"/>
    <path d="M37.1374 25.0973C38.0555 24.4656 39.3136 24.7804 39.8472 25.7586L40.2775 26.5475C40.7621 27.4359 40.4649 28.546 39.6148 29.095C33.0454 33.3369 29.9064 36.7598 26.9869 43.111C26.5757 44.0055 25.5674 44.473 24.6298 44.173L23.6422 43.8569C22.5288 43.5007 21.9949 42.2309 22.5441 41.1989C26.3157 34.1127 29.8671 30.0996 37.1374 25.0973Z" fill="#00171F"/>
    <path d="M89.0769 104.486C87.965 105.333 86.3726 105.093 85.5601 103.955C84.7918 102.88 85.0034 101.39 86.0408 100.571L89.6691 97.7069C90.6708 96.916 92.1059 97.0002 93.0083 97.9026C94.0859 98.9802 93.9661 100.761 92.7539 101.684L89.0769 104.486Z" fill="#007EA7"/>
    <path d="M89.0769 104.486C87.965 105.333 86.3726 105.093 85.5601 103.955C84.7918 102.88 85.0034 101.39 86.0408 100.571L89.6691 97.7069C90.6708 96.916 92.1059 97.0002 93.0083 97.9026C94.0859 98.9802 93.9661 100.761 92.7539 101.684L89.0769 104.486Z" fill="#003459" fill-opacity="0.75"/>
    <path d="M96.6281 94.7044C98.4269 96.6907 98.2936 98.4418 96.4801 100.084C94.8606 101.409 93.2031 101.705 91.5101 99.8355C89.8877 98.044 89.3635 96.2503 91.3659 94.4369C93.255 92.7262 94.7941 92.6792 96.6281 94.7044Z" fill="#007EA7"/>
    <path d="M96.6281 94.7044C98.4269 96.6907 98.2936 98.4418 96.4801 100.084C94.8606 101.409 93.2031 101.705 91.5101 99.8355C89.8877 98.044 89.3635 96.2503 91.3659 94.4369C93.255 92.7262 94.7941 92.6792 96.6281 94.7044Z" fill="#003459" fill-opacity="0.75"/>
</svg>
