<svg width="16" height="12" viewBox="0 0 16 12" fill="none" xmlns="http://www.w3.org/2000/svg">
    <path d="M15.6335 0.33676C15.5276 0.230052 15.4017 0.145356 15.263 0.0875565C15.1243 0.0297575 14.9755 0 14.8252 0C14.6749 0 14.5261 0.0297575 14.3873 0.0875565C14.2486 0.145356 14.1227 0.230052 14.0168 0.33676L5.53519 8.8298L1.97176 5.25498C1.86187 5.14883 1.73215 5.06537 1.59 5.00935C1.44786 4.95333 1.29607 4.92586 1.14331 4.9285C0.990548 4.93115 0.839803 4.96385 0.699681 5.02475C0.559559 5.08565 0.432805 5.17356 0.326655 5.28345C0.220505 5.39333 0.137038 5.52305 0.0810208 5.6652C0.0250032 5.80734 -0.00246884 5.95913 0.000174094 6.11189C0.00281703 6.26465 0.035523 6.4154 0.0964241 6.55552C0.157325 6.69564 0.245229 6.8224 0.355117 6.92855L4.72687 11.3003C4.83271 11.407 4.95862 11.4917 5.09736 11.5495C5.23609 11.6073 5.3849 11.6371 5.53519 11.6371C5.68548 11.6371 5.83429 11.6073 5.97302 11.5495C6.11176 11.4917 6.23767 11.407 6.34351 11.3003L15.6335 2.01032C15.749 1.90371 15.8413 1.77432 15.9044 1.63031C15.9674 1.48629 16 1.33077 16 1.17354C16 1.01632 15.9674 0.860793 15.9044 0.716776C15.8413 0.572759 15.749 0.443369 15.6335 0.33676Z" fill="white"/>
</svg>