<svg width="48" height="43" viewBox="0 0 48 43" fill="none" xmlns="http://www.w3.org/2000/svg">
    <rect y="0.998291" width="48" height="42" rx="10" fill="#590030"/>
    <path d="M25.8782 21.996L31.606 16.2815C31.8568 16.0307 31.9977 15.6905 31.9977 15.3358C31.9977 14.9811 31.8568 14.6409 31.606 14.39C31.3552 14.1392 31.015 13.9983 30.6602 13.9983C30.3055 13.9983 29.9653 14.1392 29.7145 14.39L24 20.1178L18.2855 14.39C18.0347 14.1392 17.6945 13.9983 17.3398 13.9983C16.985 13.9983 16.6448 14.1392 16.394 14.39C16.1432 14.6409 16.0023 14.9811 16.0023 15.3358C16.0023 15.6905 16.1432 16.0307 16.394 16.2815L22.1218 21.996L16.394 27.7105C16.2692 27.8343 16.1701 27.9817 16.1024 28.144C16.0348 28.3063 16 28.4804 16 28.6562C16 28.8321 16.0348 29.0062 16.1024 29.1685C16.1701 29.3308 16.2692 29.4782 16.394 29.602C16.5178 29.7268 16.6652 29.8259 16.8275 29.8936C16.9898 29.9612 17.1639 29.996 17.3398 29.996C17.5156 29.996 17.6897 29.9612 17.852 29.8936C18.0144 29.8259 18.1617 29.7268 18.2855 29.602L24 23.8742L29.7145 29.602C29.8383 29.7268 29.9856 29.8259 30.148 29.8936C30.3103 29.9612 30.4844 29.996 30.6602 29.996C30.8361 29.996 31.0102 29.9612 31.1725 29.8936C31.3348 29.8259 31.4822 29.7268 31.606 29.602C31.7308 29.4782 31.8299 29.3308 31.8976 29.1685C31.9652 29.0062 32 28.8321 32 28.6562C32 28.4804 31.9652 28.3063 31.8976 28.144C31.8299 27.9817 31.7308 27.8343 31.606 27.7105L25.8782 21.996Z" fill="white"/>
</svg>
