<svg width="48" height="43" viewBox="0 0 48 43" fill="none" xmlns="http://www.w3.org/2000/svg">
    <rect y="0.998291" width="48" height="42" rx="10" fill="#00171F"/>
    <path d="M31 14H17C16.2044 14 15.4413 14.3161 14.8787 14.8787C14.3161 15.4413 14 16.2044 14 17V27C14 27.7956 14.3161 28.5587 14.8787 29.1213C15.4413 29.6839 16.2044 30 17 30H31C31.7956 30 32.5587 29.6839 33.1213 29.1213C33.6839 28.5587 34 27.7956 34 27V17C34 16.2044 33.6839 15.4413 33.1213 14.8787C32.5587 14.3161 31.7956 14 31 14ZM30.59 16L24.71 21.88C24.617 21.9737 24.5064 22.0481 24.3846 22.0989C24.2627 22.1497 24.132 22.1758 24 22.1758C23.868 22.1758 23.7373 22.1497 23.6154 22.0989C23.4936 22.0481 23.383 21.9737 23.29 21.88L17.41 16H30.59ZM32 27C32 27.2652 31.8946 27.5196 31.7071 27.7071C31.5196 27.8946 31.2652 28 31 28H17C16.7348 28 16.4804 27.8946 16.2929 27.7071C16.1054 27.5196 16 27.2652 16 27V17.41L21.88 23.29C22.4425 23.8518 23.205 24.1674 24 24.1674C24.795 24.1674 25.5575 23.8518 26.12 23.29L32 17.41V27Z" fill="white"/>
</svg>
