<svg width="48" height="43" viewBox="0 0 48 43" fill="none" xmlns="http://www.w3.org/2000/svg">
    <rect y="0.998291" width="48" height="42" rx="10" fill="#003459"/>
    <path d="M31.6335 16.3351C31.5276 16.2283 31.4017 16.1436 31.263 16.0858C31.1243 16.028 30.9755 15.9983 30.8252 15.9983C30.6749 15.9983 30.5261 16.028 30.3873 16.0858C30.2486 16.1436 30.1227 16.2283 30.0168 16.3351L21.5352 24.8281L17.9718 21.2533C17.8619 21.1471 17.7321 21.0637 17.59 21.0076C17.4479 20.9516 17.2961 20.9242 17.1433 20.9268C16.9905 20.9294 16.8398 20.9621 16.6997 21.023C16.5596 21.0839 16.4328 21.1718 16.3267 21.2817C16.2205 21.3916 16.137 21.5213 16.081 21.6635C16.025 21.8056 15.9975 21.9574 16.0002 22.1102C16.0028 22.2629 16.0355 22.4137 16.0964 22.5538C16.1573 22.6939 16.2452 22.8207 16.3551 22.9268L20.7269 27.2986C20.8327 27.4053 20.9586 27.49 21.0974 27.5478C21.2361 27.6056 21.3849 27.6353 21.5352 27.6353C21.6855 27.6353 21.8343 27.6056 21.973 27.5478C22.1118 27.49 22.2377 27.4053 22.3435 27.2986L31.6335 18.0086C31.749 17.902 31.8413 17.7726 31.9044 17.6286C31.9674 17.4846 32 17.3291 32 17.1718C32 17.0146 31.9674 16.8591 31.9044 16.7151C31.8413 16.5711 31.749 16.4417 31.6335 16.3351Z" fill="white"/>
</svg>

